<?xml version="1.0" encoding="utf-8"?>
<!-- Generator: Adobe Illustrator 24.0.1, SVG Export Plug-In . SVG Version: 6.00 Build 0)  -->
<svg version="1.1" id="Layer_1" xmlns="http://www.w3.org/2000/svg" xmlns:xlink="http://www.w3.org/1999/xlink" x="0px" y="0px"
	 viewBox="0 0 151.8 162.2" style="enable-background:new 0 0 151.8 162.2;" xml:space="preserve">
<style type="text/css">
	.st0{fill:#24262B;}
	.st1{fill:#E24C4D;}
</style>
<title>page-illustration</title>
<g id="Layer_2_1_">
	<g id="Layer_1-2">
		<path class="st0" d="M28.2,146.5c-10,12.1-45.3-6.7-18.1-32C7,103.6-0.5,96.7,15.4,78c11.4-13,10.5-19.9,32.9-24
			c9.3-5.5-14.1,3.7-25.6-6.1c5.1-11.7,1.4-1.6-4.8-10c-1.4-2.8,3.3-2.5,3-4.7c-3.6,0.7-1.3-22.4,5.1-14.1
			c3.9-2.3,4.1-20.8,12.3-17.5c4.5,5.9,27.6-9.1,26.1,3.9c0.2,1.4,7.4-5,10.2,4.7c15.5-7.1,0,7.1,8.3,12.8c10.5,2.9,2.7,13-3.5,19.8
			c-3.8,4.5-11.4-0.7-13.6,6.3c28.7-9.3,57.2,0.4,67.9,41.6c12.7-6.1,36.2,21.8-5.6,36.5C111.2,161.5,59.5,175.5,28.2,146.5z
			 M21,125c-12.2,0.8-28.2,14.1,9.1,14.3c10,12.4,28.1,17.5,46.4,15.3c21.3-1,36.9-15.3,50.9-32.3c13.7,3,25.6-33.4,2.2-25.2
			c-7.7-28.3-15.5-15.7-46-24.8c-1.9-4-14.7,10.5-32.6,22.1c-7.9,2.8-14.8,10.7-24.5,14.3C18.4,107.7,18.5,115.6,21,125z"/>
		<path class="st1" d="M44.6,131.7c-2.4-7.3,17.9-14,17-2.9C61.2,133.2,47,140.9,44.6,131.7z"/>
		<path class="st1" d="M112.2,113c0.8,9.3-16.1,14.1-11.9-0.8C102.4,108,112.2,103.6,112.2,113z"/>
		<path class="st0" d="M91.7,105.9c-0.9,12.8-10.5,3-6.7-8.6C87.2,91.9,91.4,98.7,91.7,105.9z"/>
		<path class="st0" d="M84.6,119.7c-10.3,3.9-6.1-9.8,2.9-5.2C94.6,119.4,82.7,137.5,84.6,119.7z"/>
		<path class="st0" d="M61.7,107.4c1.5-10.6,13.1,5.2,5,12.6C63,118.3,62.3,112.7,61.7,107.4z"/>
		<path class="st0" d="M22.4,132.4c-0.2,6.8-15.5,1.3-5.8-3.3C17,129.4,21.5,127.4,22.4,132.4z"/>
		<path class="st0" d="M137,106.6c1.1,2.6-10.5,8.9-8,0.2C129.8,103.9,136.4,101.9,137,106.6z"/>
		<path class="st0" d="M84,144.8c6.3-15.1,7.5,14.4-0.2,0.1L84,144.8z"/>
	</g>
</g>
</svg>
