<?xml version="1.0" encoding="utf-8"?>
<!-- Generator: Adobe Illustrator 23.1.1, SVG Export Plug-In . SVG Version: 6.00 Build 0)  -->
<svg version="1.1" id="Layer_1" xmlns="http://www.w3.org/2000/svg" xmlns:xlink="http://www.w3.org/1999/xlink" x="0px" y="0px"
	 viewBox="0 0 1214.2 1427.6" style="enable-background:new 0 0 1214.2 1427.6;" xml:space="preserve">
<style type="text/css">
	.st0{fill-rule:evenodd;clip-rule:evenodd;fill:#E24C4D;}
	.st1{fill-rule:evenodd;clip-rule:evenodd;fill:#24262B;}
	.st2{fill:#24262B;}
	.st3{fill:none;stroke:#24262B;stroke-width:10.1633;stroke-linecap:round;stroke-linejoin:round;stroke-miterlimit:10;}
</style>
<g id="Character_x2F_strolling">
	<path id="Accent" class="st0" d="M381,1114.5c0.7-36.8,1.6-73.6,2.5-110.4c1.2-48.7,1.2-97.8,4.9-146.4
		c3.9-51.6,14.3-102.9,24.9-153.4c4.7-22.4,13.6-45.2,11-68.1c-3.4-30.8-6.8-61.5-10.2-92.3c5.3-0.6,10.6-1.1,15.9-1.7
		c26.5-2.8,52.9-5.6,79.4-8.4c12.3-1.3,24.8-3.3,37.2-3.5c23.9-0.3,47.9-0.6,71.8-0.9l37.2-0.5c3,0,15.3-2.2,17.9-0.2
		c1.5,1.1,1.9,8.7,2.2,10.5c1.3,6.5,2.7,13,4,19.5c1.6,7.8,2,10.6,0.2,18.1c-9.2,37-15.5,76.4-12.5,114.6
		c2.7,34,13.8,70.7,34.1,98.3c14.4,19.5,33.1,37.1,51.8,52.3c55.6,45.4,134.5,52.9,203.1,52.2c13-0.1,25.9-0.7,38.8-1.6
		c12.5-0.9,25.8-4,38.3-3.9c5.3,0.1,3.4-0.8,3.7,3.3c0.2,2.8-1.1,6.4-1.7,9.1c-5.1,23.3-12.2,46.3-19,69.1
		c-7.9,26.7-16.1,53.3-24.4,79.9c-3.1,9.8-6.1,19.5-9.2,29.3c-0.7,2.3-1.7,9.7-3.6,11.4c-1,0.9-5.3,0.6-6.6,0.7
		c-5.4,0.6-10.8,1.1-16.2,1.7c-13.4,1.4-26.8,2.9-40.2,4.3c-15.4,1.6-29.5,2.1-45,0.2c-42.2-5-84.1-19.4-120.4-41.9
		c-33.4-20.7-63.8-46.7-92.6-73.4c-16.8-15.6-32.5-32.2-48.8-48.2c-12.7-12.5-26.7-23.9-40-35.9c0.3,10.9,0.7,21.9,1,32.8
		c2.4,75.7,4.8,151.5,7.2,227.2c-8.1-1.8-16.2-3.6-24.3-5.4C495.9,1140.1,438.4,1127.3,381,1114.5"/>
	<g id="Ink" transform="translate(140.999812, 25.299510)">
		<path id="Fill-3" class="st1" d="M609.4,160.4c0.2,7-4.4,17.3-12.7,17.7c-8.1,0.4-11-8.6-11.5-15c-0.1-1.8-0.7-7.1,1.3-8.2
			c4.1-2.4,4.1,5.2,5.3,7.2c6,10.2,11.6-5.6,15.2-8.8C608.6,155.6,609.4,157.6,609.4,160.4"/>
		<path id="Fill-5" class="st1" d="M604.4,146.3c-3.6-0.7-10.3-0.7-11.1-5.7c-0.9-5.6,5.6-5.8,9.3-5.5
			C612.7,136.2,618.2,148.9,604.4,146.3"/>
		<path id="Fill-7" class="st1" d="M642.5,188c-6-0.6,1-6.9,4.3-6.6C654,182.2,646.9,188.4,642.5,188"/>
		<path id="Fill-9" class="st1" d="M-113.7,262c-9.8-7.7,41.6-28.2,50-30.1c30.9-7.1,59.6-10.7,91.5-10.8c7,0,80.5-0.7,79.3,13
			c-0.7,7.8-28.5,3-32.6,2.6c-16.5-1.8-32.3-2.4-49-1.9c-27.3,0.9-54.9,3.6-81.9,8.5c-13.6,2.5-28.2,5.7-40.8,11.4
			C-100.4,256.2-110.3,264.6-113.7,262"/>
		<path id="Fill-11" class="st1" d="M887.1,339.9c-18.4-5.6-32.8-19.1-38.2-38.1c-2.6-9.2-2.7-18.3-2-27.8
			c0.5-7.5,0.6-19.1,7.9-23.6c1.6,6.1-0.8,12.6-1.2,18.7c-0.3,5.8,0.1,11.8,1.1,17.4c1.7,10,5.6,19.2,12.5,26.5
			c14,14.7,39.1,22.6,58.9,18.6c4.1-0.8,14.5-7.2,18.3-3.4c3.5,3.5-3.1,6.5-5.8,7.9C922.9,344.3,903.8,344.9,887.1,339.9"/>
		<path id="Fill-13" class="st1" d="M1064,994c-3.9,0.2-3.9,0.2-1.6,4.4C1062.9,996.8,1063.4,995.4,1064,994 M1042.9,1104.5
			c9.6-4.6,8.3-17.4,7.5-26.3c-1.3-14.4-4-28.5-5.2-42.9c-2.6-29.6-4.7-59.1-7.4-88.7c-1.3-13.5-1.3-26.8-1.3-40.2
			c0-6.4,1.1-17.9-2.3-23.9c-4.2-7.6-25.4-2.1-32.6-1.2c-10.8,1.4-21.5,2.6-32.2,4.3c-3,0.5-11.2-0.8-13.1,1
			c-1.5,1.4,0.1,13-0.1,15.2c-1.1,9.6-8.4,25.9-3,34.2c2.2,3.4,6.4,7.1,9.3,10c4,4.1,5.8,4.8,10.7,2.4c4.7-2.2,17-14.4,22.7-10.4
			c8.7,6.1-7.9,18.3-11.5,21.1c-4.7,3.7-9.8,10.1,0,5c4.3-2.2,22.2-13.4,23.2-2.9c1.1,11.4-15.1,13.7-18.4,22.2
			c-2,5,2.7,13.6,3.9,18.5c1.5,5.8,2.8,11.7,4.1,17.6c3,13.2,6.8,26.2,10,39.3c2.9,11.9,6.2,23.2,13.7,33.1
			C1025.2,1097.9,1034.6,1108.5,1042.9,1104.5 M880.4,886.1c1.5-3.8,5.3-6.8,4.3-11.2c-26.2,9.6-54,10.6-81.5,10.6
			c4.6,2.7,7.8,3.7,9.3,9.4c1.2,4.7,0.3,9.8-1.4,14.2c-3.4,8.7-10.5,15.3-17.2,21.3c-17.2,15.4-38,29.6-51.8,48.5
			c19.8,4.5,42.2-3.7,62-5.5c14.2-1.4,37-5.8,34.6,16.5c-1.8,16.8-16.7,29.3-27.7,40.3c-12.6,12.6-24.8,25.5-35.8,39.6
			c11.7,0.5,23.4-0.6,35-2.1c2.8-0.4,10.8,0,12.6-2.2c1.5-1.8,1-7.3,1.8-9.8c5.7-17.3,9.7-34.8,14.5-52.4
			c2.5-9.3,7.5-17.5,10.6-26.7c3.2-9.5,6.1-19.2,9.3-28.7C865.9,927.2,872.5,906.4,880.4,886.1 M757.5,1065
			c5.1-7.1,9.6-14.8,15.4-21.4c4.6-5.3,9.7-9.8,14.1-15.3c9.3-11.8,22.6-20.5,31.4-32.5c3.6-4.9,1.7-4.6-3.5-4.3
			c-4.3,0.2-8.6,1.2-12.8,2.1c-12.4,2.5-24.8,4.9-37.2,6.8c-10.7,1.7-29.7,6-38.2-3.8c-7.9-9.1-3.3-23.5,2.9-32
			c7.2-9.9,17.5-17.3,26.6-25.2c13-11.2,26-22.4,38.5-34.2c-12.5-1.6-25.5-0.9-38.1-0.6c-9.9,0.3-23.4,0.8-29.6-8.9
			c-2.1-3.3-3-7.4-2.9-11.4c0.1-2.6,2.7-8.3,1.5-10.8c-2.3-4.9-25.3-7.3-30.1-8.5c-21.2-5.3-42.3-11-61.4-22.3
			c-4.7-2.8-9.3-5.8-13.8-9c-2.6-1.9-5.8-5.5-9-6c-7-1.1-11.7,9.1-15.3,13.9c-7.2,9.7-14.6,19.3-21.3,29.3
			c-2.9,4.3-5.6,8.7-8.3,13.2c-1.2,2-5.8,7.6-5.8,10.1c0.1,11.5,44.6,0.9,51.5-0.4c20.5-3.9,41.1-9.2,61.9-11.1
			c7-0.6,15.4-0.4,19.5,6.4c4.6,7.6,2.2,17.9-1.6,25.1c-10,19.3-29.2,35.4-45.2,49.4c-17.4,15.3-34.1,31.4-51.1,47.1
			c9.4,5.7,19.3,12.3,29.3,16.8c7.8,3.6,17-1.1,24.8-3.4c5.2-1.6,12.8-4.9,18-1.6c6.3,4,4.9,14.1,2.1,19.7c-0.9,1.8-4.9,6.5-4.2,8.8
			c0.8,2.6,7.2,4.4,9.3,5.2c9.9,3.9,20.3,6.8,30.6,8.9s20.7,3.4,31.1,4.1C744.1,1069.8,752.7,1071.7,757.5,1065 M585.7,999
			c32.1-33.3,68.6-61.3,98.5-96.8c-10.2-3.8-22.1-0.1-32.4,1.8c-12,2.3-23.9,4.4-35.8,7.3c-11.8,3-23.8,5.5-35.8,7.4
			c-8.8,1.4-20.3,2.7-27.3-4.5c-12-12.4-2-33.7,5-45.6c5.8-9.9,12.3-19.4,19.1-28.6c2.7-3.6,5.4-7.2,8.2-10.8
			c2.1-2.7,8.3-7.9,9.1-11.6c1-4.9-9.3-10.5-13.1-13.7c-4-3.4-8.1-6.7-11.7-10.5c-2.5-2.6-4.5-6.4-7.3-8.5c-7-5.2-16.7,0.6-24.4,1.7
			c-8.9,1.3-18.8,2.7-27.8,1.9c-19.9-1.9-28.4-15.8-23.4-35.2c2.8-10.8,8-20.7,14-29.9c4.5-6.9,14.6-15.6,16.1-23.8
			c0.8-4.5-1.2-9.6-1.8-14c-0.7-5.6-0.6-11.3-1.2-16.9c-1.1-9.9-1.6-18.9-0.3-28.8c3.3-23.7,9.3-46.9,11.7-70.7
			c-10.7,2.1-36.1,9.6-29.7-11.4c2.3-7.4,9.5-12.6,14.9-17.6c5.4-5.1,10.5-11.3,17.4-14.2c0.3,3.3,0.5,6.5,0.8,9.8
			c2.5-0.2,0.3-14.9,0.2-16.6c-0.3-6.9,1.7-14.9-6.4-14.9c-8.9,0-18.3,1.3-27.1,2.2c-8.4,0.9-18.6,0.2-25.5,5.9
			c-6.3,5.2-11.3,12.9-16.7,19c-6.3,7-12.6,14-18.7,21.2c-12.7,14.7-24.9,29.8-35.6,46.1c-5,7.7-24.5,33.5-15.4,42.2
			c8.8,8.4,28.7,4.4,39.1,3.2c13.9-1.7,27.7-4,41.7-5.1c9.5-0.8,21.5-0.4,25,10.5c4.4,13.5-5.2,27-13.4,36.6
			c-11,12.8-22.8,25-34.5,37.2c-12.6,13.2-25.4,26.2-37.5,39.8c-5.4,6.1-30,26.6-16.3,34.6c5.8,3.4,17.3,0.1,23.3-1.1
			c7.6-1.6,15.4-2.3,23.1-2.8c5.3-0.3,12.5-1.5,16.6,2.9c5.1,5.4,2.5,13.7-0.8,19.3c-4.7,8.1-11.8,14.7-17.7,22
			c-5.5,6.7-5.1,10.5-2.1,18.5c2.8,7.6,9.1,13.8,14,20.1c4.1,5.3,7.8,11.6,13,15.9c10.2,8.4,25.7-3.5,33.2,11
			c4,7.7,0.1,14.5,1.7,22.2c1.3,6,8.1,10.4,12.3,14.3c13.2,12.4,27.9,22.9,42,34.3c7.4,6,14.6,12.3,21.9,18.5
			C572.9,996.4,579.7,1005.3,585.7,999 M411.3,834.5c4.3,5.2,10.7-5.8,13.4-8.7c4.2-4.7,10.2-9.6,13.3-15.2c2.2-4.1,1.8-3.7-2.7-3.7
			c-4,0-8.3,1.3-12.1,2.2c-3.4,0.8-6.9,1.9-10.4,2.4c-3.4,0.4-7-0.5-10.3,0.4c-5.3,1.4-5.5,3.4-2.4,8
			C403.5,824.8,407.4,829.9,411.3,834.5 M416.2,899c1.7-3.9,0-11.9-0.2-16.1c-0.3-6.1-2.1-10.8-7.3-14.3
			c-3.4,5.8-16.6,21.7-11.4,28.5C399.6,900.2,414.2,903.5,416.2,899 M421.7,1124.9c6-0.6-1.5-48.8-2-54.3c-0.6-7.7,1-19.2-4.1-25.2
			c-2.6-3.1-4.9-3.9-6.3-8.3c-1.6-5.1-1.1-10.4,0.3-15.4c2.8-9.8,5.2-17.1,5.4-27.5c0.1-9.8,0.2-19.6,0.3-29.4
			c0.1-11-0.1-22.1-0.2-33.1c-0.1-6.3,1.9-12.6-5.1-14.8c-6.5-2.1-14.3-0.9-19.6-6.2c-5.5-5.5-6.1-15.6-4.9-22.9
			c1.6-9.8,7.1-17.5,11.3-26.2c4-8.4-3-13.7-7.8-20.2c-23.8-32.6-43-68.2-60.6-104.5c-2.4-5-6.1-18.4-12.2-14.1
			c-6,4.1-11.6,12.9-16.8,18.3c-7.3,7.6-14.2,15.6-20.9,23.8c-4.4,5.5-12.2,12.2-12.3,20c15,0,29.4-4.7,44-7.5
			c7.7-1.5,23.5-7.5,28.1,2.3c4,8.5-3.1,20.3-7.6,27.1c-7.1,10.8-15.2,21.1-22.7,31.6c-7,9.8-14.5,19.3-20.9,29.5
			c-3,4.8-14.1,19.5-4.5,22c9.1,2.4,22.3-1.9,31.3-3.8c9.7-2.1,19.8-5.2,29.7-5.6c24-1,21.1,23.1,12.2,38.4
			c-11.9,20.3-29.3,38.4-44.7,56c-8.2,9.4-16.4,19-23.9,29c-2,2.7-15.8,18.3-13.4,22.4c3.6,6.2,23.1-3.4,27.4-5
			c9.2-3.5,18.3-7.5,27.7-10.4c7-2.2,16.5-4.2,18.9,5.1c2.5,9.5-5.4,19.5-10.8,26.5c-14.8,19.2-32.5,35.9-47.1,55.3
			c23,5,46.6,5.7,69.5,11c11.4,2.6,22.9,5.4,33.9,9.3C401.6,1120.6,413,1125.7,421.7,1124.9 M400.3,1242.7c1.8-2.3-0.1-7.1-0.3-9.6
			c-0.5-4.9-0.2-10-0.1-14.9c0.1-6.6,3.7-20.6,0.2-26.3c-3.1-5.1-12.3-1.4-17-0.4c-10,2.1-19.6,3.3-29.9,2.1c-8.7-1-17.2-2.7-25-6.7
			c-7.7-4-9.5-1.9-15.7,3.4c-8.2,7-9.1,7.3-6.6,17.8c0.9,4,2.8,14.7-4.1,13.2c-5.5-1.2-7-12.1-12.2-14.2c-3.7-1.5-11.2,2-12,6
			c-1.1,5.2,4,10.8-0.7,15.8c-4.5,4.7-9.7,0-12.5-3.9c-1.8-2.4-3-6.2-5.1-8.2c-3.3-3.2-3.2-2-7.2-0.7c-6.6,2.3-13.6,4.1-20.4,5.8
			c-3.3,0.8-6.2,0-9.3,0.5c-2.6,0.4-4.4,1.5-7.2,1.5c-8.2,0.1-16.9-0.4-25,0.5c-5.7,0.7-11.1,2.6-16.8,2.9
			c-9.1,0.4-18.2,0.6-27.3,1.7c-6.3,0.8-14.4,1.8-19.2,6.4c-4.8,4.5-4.7,11.6-6,17.6c13.8-2.7,28.2-1.9,42.2-2
			c13.1-0.1,26.2-0.6,39.3-0.4c11.6,0.2,23.4,1.1,35,0.8c12.6-0.3,25.4-1.6,38-0.6c5,0.4,6.8-1,11.5-2s10.2,1.1,15,0.8
			c9.9-0.7,20.5-1.2,30.7-1.4c12.5-0.2,24.7-2,37.2-2.7c5.8-0.3,11.7-0.3,17.5-0.7C390.2,1244.6,398.1,1245.5,400.3,1242.7
			 M274.4,1093.5c6.3,0.6,10.9-8.9,14.2-13.1c5.2-6.5,10.6-12.8,16.2-19c11.5-12.9,23.2-25.6,33.6-39.5
			c-20.2,0.5-37.4,16.3-57.3,18.7c-19.4,2.4-18-19.4-11.2-31.5c7.3-12.9,18.5-24.2,27.6-35.8c10.4-13.3,22.4-25.1,32.5-38.7
			c5-6.8,10.4-13.4,15.1-20.5c2-3.1,10.2-13.2,9.7-17.5c-0.9-8-21-2-26.1-1.1c-14.5,2.5-35.9,12.1-49.9,4.5
			c-12.6-6.8-7.8-22.8-2.7-33.1c14.8-29.6,40.8-51.8,56-81c-18.3-1.8-36,9.6-54.2,10.5c-6.9,0.3-14.7-4.1-16.3,4.2
			c-1.6,8.5-2.1,17.6-3,26.3c-2,17.7-3.9,35.5-5.6,53.3c-1.7,17.3-1.2,34.6-2.9,51.9c-0.7,7.4-0.2,9.3,7.7,7.4
			c5.6-1.4,11.8-5.1,17.6-5.3c14.5-0.5,8.1,17.7,3.5,24.5c-8.5,12.5-21.2,21.8-29.6,34.2c-7.1,10.6-4.8,29.5-4.5,41.7
			c0.4,16.3-0.6,31.8-3.2,47.8c-0.5,3.4-1.8,3.1,0.9,5.5c2.2,1.9,7.8,1.8,10.4,2.1C260.2,1090.9,267.2,1092.9,274.4,1093.5
			 M247.4,967.5c-0.3,1.1-0.2,2.2,0.2,3.3c1.7,1.5,17.4-17.6,18.7-19.2c-3.6-1.4-11.5,1.8-14.8,3.8
			C246.4,958.5,247.8,961.7,247.4,967.5 M274.7,701.5c-1.7,20.2-5.5,40.1-6.8,60.3c9.4-10.2,18.3-20.8,27.5-31.1
			c4.3-4.9,17.6-14.6,18.3-21.5c0.4-4-4.9-11.2-6.8-14.5c-2.7-4.9-5.6-9.7-8.2-14.6c-6-11.6-10.1-24.1-16.2-35.7
			c-5,6.3-4,16.3-4.3,23.9C277.9,679.4,275.7,690.4,274.7,701.5 M274.5,520.8c-1.6,2.3,1.7,12.7,2.2,15.4c0.9,6.1,2,12.2,3.3,18.2
			c2.5,11.9,5.2,23.7,9.3,35.2c10.8-27.9,27.3-53.1,45.8-76.4c-11.6,3.3-24.6,4.3-36.6,5.3C294.6,518.9,277,517.2,274.5,520.8
			 M330.7,691.1c4.1-2.1,7.7-10.8,10.3-14.6c2.1-3.1,6.9-8.2,6.2-12.5c-1.7-9.1-29.9-10.5-37-12.1
			C310.8,656,325.7,693.6,330.7,691.1 M375.4,652.8c-16.8-21.5,9.5-54.3,21.8-71c19.1-25.9,40.9-49.1,62.4-72.8
			c-18.3-2.5-37.9-0.7-56.3,0.1c-8.9,0.4-17.7,0.7-26.6,1.2c-7.6,0.4-16.9-0.2-24.4,1.4c-10.4,2.2-17.3,18.7-23.2,26.9
			c-8.9,12.6-17.3,25.4-24,39.3c-3.2,6.6-6.6,13.6-8.9,20.6c-2.8,8.4-0.4,13.6,2.3,21.7c2.2,6.6,2.5,12.7,9,16.4
			c5.2,2.9,11.6,4.1,17.3,5.7c11.2,3.2,28.4,4.8,30,19.5c1.4,12.6-8.5,25.4-15.5,34.8c-4.7,6.3-4.2,9.5-0.5,16.5
			c3.4,6.3,7.6,12.1,10.8,18.5c7.8,15.2,15.4,30.5,23.5,45.6c9.5-9.1,16.7-21.6,25.6-31.4c9.1-10.1,18.3-20.1,27.9-29.8
			c18.6-18.9,38.2-37,53.5-59c-9.4-4.1-21.2-1.4-30.9,0.1c-9.8,1.5-19.6,3.2-29.5,4.5C405.4,663.5,385.9,666.2,375.4,652.8
			 M293.1,472.9c-5.1,9.7-9.8,19.7-14.5,29.7c45.9-9,93-16.1,139.9-15.5c23.1,0.3,46.2,1.6,69.3,2.1c5.2,0.1,20.6,3.6,23.1-2.7
			c1.3-3.2-0.4-8.7-0.4-12.1c-0.1-6.2,0.7-12.4,1.9-18.5c2-10.5,5.2-20.8,9.2-30.7c3.1-7.7,7.8-12.2,7.9-20.9
			c0.1-21.8-0.1-43.5,3.6-65.1c1.1-6.1,2.1-18.1,6.2-23.1c3.3-4.1,6-2.5,7.2,2.2c2.9,11.2-2.2,27.8-2.8,38.9
			c-1.3,21.6-1.6,43.6,1.1,65.1c0.7,5.7,2.5,18.7,9.6,20.1c4.8,0.9,14.2-7.9,18.1-10.2c9.1-5.4,18.2-9.9,27.9-13.9
			c7.2-3,17.7-6.2,22.6-12.6c6-7.8,7.3-14.2,7.4-24.2c0.1-10.2,0-20.5-0.2-30.6c-0.4-21.5-2.4-40.3-15.7-57.4
			c-13.6-17.4-30.1-25.3-51.9-26.9c-19.8-1.4-41.1,2.1-59.7,9.1c-10.2,3.8-20.4,8.5-29.8,14c-7.6,4.5-16.6,7.3-23.5,12.4
			c-30.8,22.7-63.8,44.4-89.3,73.6c-12.1,13.9-22.7,28.8-34.4,43.1C312.3,435.3,303.1,454,293.1,472.9 M313.2,372
			c6.2-1,11.8-3.1,18.1-3.1c5.3,0,8.3,0.3,12.7-3.2c8.2-6.7,17.5-15.5,24.1-23.8c7.3-9.2,16-15.3,24.8-23c3.7-3.3,7.3-6.3,11.6-8.8
			c2.8-1.6,7.2-3.3,8.2-6.8c-9.4,0-18.7,1.6-28.2,1.6c-9.2,0-18.5,0.2-27.7,0.3c-9.1,0-18.3,0-27.3-0.2c-5.3-0.2-12.8-2.9-16,2.5
			c-2.9,4.8-3,15.6-4.1,21c-1.8,8.6-2.6,17.9-5.7,26.1c-1.3,3.6-10.3,16.9-8.5,20.6C297.2,379.5,309.5,372.6,313.2,372 M290.6,353.5
			c2.4-7.7,3.2-16.4,5.4-24.3c1.1-3.9,4.2-11.5,3.3-15.5c-1.2-5.3-5.7-3.5-10.1-2.9c-7.5,1-15.1,1.2-22.6,1.1
			c-15.6-0.2-31.3-1.2-46.8-3.7c-2.7-0.4-4.5-1.8-6.9-2.4c-2.9-0.8-4.3,0-7.2,0.1c-6.9,0.3-15.2-1.8-22.2-2.9
			c-26-3.9-52.2-7.2-78.4-11.1c-12.6-1.9-24.4-3.5-37.2-3.7c-13.4-0.2-27.3-1.5-40.7-0.7c-51.3,3.2-107.6,18.5-141.4,61.2
			c-3.6,4.6-10.2,14.9-3.7,19.8c4.3,3.3,12.3,0.6,16.8-0.8c13.6-4.2,26.6-11.3,38.1-19.8c8.7-6.5,16.1-14.6,24.7-21.2
			c9.8-7.6,12.6,4.2,9.5,12.8C-33,351-44.3,360-51,369.9c-7.8,11.6-13.1,24.4-17.9,37.5c10,1.3,17.3-5.3,24.5-11.3
			c8.8-7.2,16.4-15.2,24.2-23.5c3.6-3.7,13.3-17.6,19.5-16.2c8.6,2,5.3,16.6,3.6,22.2c-5.6,18.5-13,35.2-15.5,54.6
			c-0.7,5.7-3.3,17.1,5.1,18.1c5.1,0.6,11.1-4.8,14.6-8c13.9-12.6,20-34.2,27.9-50.8c4.1-8.6,8.2-17.7,14.3-25
			c6.1-7.2,13.2-8.7,21.6-11.5c10.2-3.3,20.9-3.3,31.6-3.7c8.8-0.4,18,1.4,26.7,0.5c18.5-2,38.6,0.3,57.3,1.3
			c21.9,1.1,43.7,4.5,65.6,6.1c9.6,0.7,19.2,1.3,28.7,2C288.1,362.8,288.3,360.7,290.6,353.5 M570.2,215.5c11-0.4,33.7-6.7,36.9,8.6
			c1.4,6.9-0.8,7.6-5.2,11.7c-5.6,5.2-10.6,11.1-16.3,16.2c6.8,3.4,14.1,5.8,20.7,9.5c2.7,1.5,7.8,6.9,11.1,6.1
			c3.5-0.9,6.1-7.8,7.9-10.5c4.2-6.3,8.7-12.5,13.1-18.7c3.6-5.2,8.3-10.3,10.5-16.4c2-5.5,1.4-11.6,1.6-17.3
			c0.2-6.7,1.3-7.5,5.4-11.9c2.9-3.1,5.2-6.9,5.8-11.2c1.8-13.1-8.2-14.1-17.4-8.7c-5,3-17.1,13.4-15,0c0.4-2.4,1.4-4.6,2.3-6.9
			c1.7-4.2,1.4-4.4,5.6-5.5c5.8-1.6,13.3,2.1,18.8,0.2c2.8-1,4.9-3.8,2.1-6.4c-3.2-2.9-17.7-0.7-21.6-0.5c1.6-4.2,2-5.8,6.2-6.7
			c4.2-0.8,9.3-0.2,13.5,0c3.3,0.1,12.2,2.7,14.1-1.8c3-7.2-20-5.7-23.9-6.4c-5.9-1-8.4-6.4-15-8.8c-7.7-2.7-16.1-4-24.1-5
			c-4.8-0.6-15.4-3.4-20-0.7c-3.4,2-3.2,7.6-4.2,11.1c-1.5,5.8-4.2,11.1-6.7,16.6c-4,8.8-6.3,18.5-17,19.7c-6.3,0.7-6.2,0.4-3.4,6.9
			c2,4.6,3.7,9.3,3.8,14.4c0.1,5.6-1.2,5.2,4,6.7c2.6,0.7,8.4,1.9,6.7,6.3c-1.5,4-9.8,0.1-8.2,6.4
			C563.3,216,567.6,215.6,570.2,215.5 M655.9,538.7c-23-22.7-33.4-56.4-36.3-88.3c-1-10.7,1.7-29.3-13.3-20.2
			c-10.9,6.5-22,12-33.2,18.2c-3.8,2.1-11.5,4.1-12.5,9.1c-1,5.2,3.9,14.9,5.2,20c3.9,14.8,7,29.7,11.6,44.3
			c9,28.2,24,55.1,39.4,80.1c3.3,5.4,7,10.7,10.6,15.8c3.2,4.7,7.9,8.2,11.3,13c8.5,11.8,16,19.7,28.1,27.6
			c5.9,3.8,11.8,7.8,17.5,11.8c5.6,3.9,11.6,5.4,17.4,8.6c12.8,7.3,25.8,12.1,40.1,15.7c28.8,7.2,58.9,4.5,87-4.5
			c27.6-8.8,54.6-20.6,77.4-39c11.9-9.6,21.7-20.8,31.3-32.7c2.6-3.2,12-11.8,11.4-16.3c-0.6-4.7-7.8-6.3-11.3-6.2
			c-7.6,0.4-15.9,2.8-23.2,5c-5.8,1.7-7.1,2.2-4.6-4.1c5.5-13.3,15.7-24.5,22.4-37.1c-14.5,0-27.9,4.5-39.8,12.7
			c-5,3.4-15.3,12-21.3,6.7c-9.1-8,6.8-30.2,11.4-36.7c9.4-13.1,18.6-26.3,27.4-39.8c-2.4-2.3-32.1,27.3-34.8,29.4
			c-21.6,16.7-45.4,30-70.9,39.4c-24.9,9.1-53.9,5.6-79.5,0.9C700.7,567.6,673.9,556.5,655.9,538.7 M528.9,550.9
			c3.2-2.8,0.7-8.4,0.1-11.7c-5.2,4.9-11.3,8.9-15.3,15C517.8,555.4,525.8,553.6,528.9,550.9 M548.3,767.2
			c-2.5-8.2-8.2-14.8-12.2-22.2c-4-7.3-7.3-15.2-10.9-22.7c-1.3-2.8-2.2-7.4-4.9-7.1c-1.9,0.2-4.2,5.8-5,7.1
			c-3.5,5.7-7.7,10.8-11,16.6c-6,10.4-16.2,26.4,1.1,30.3c6.3,1.4,14.4,0.9,20.9,0.8C533.4,770,541,767.7,548.3,767.2 M735.2,879.4
			c-1.9,10.6,45.4,6,51.7,5.5c0.2-1.7-18.9-4.1-20.4-4.3C761,879.5,736.7,870.9,735.2,879.4 M1065.5,1068.7
			c-0.3,2.9,3.1,3.3,3.7,5.5c0.4,1.5-0.3,2.1-0.4,2.6c0-0.6-2,2.7-2.3,3.4c-0.3,0.9-0.2,4.5-0.1,5.7c0.1,1,1.7,2.7,1.6,3.5
			c-0.1,1.8-1.8,3.3-2.1,5c-1,5.5,4.4,12.2-1,16.5c0.1-2.4,0.7-4.8,0.8-7.3c-2.9,5-2.2,8.9-5.8,13c-2.6,2.9-6.6,7.6-10.4,9.2
			c-3.9,1.6-11.7,3.3-15.9,3.1c-6.2-0.2-9.3-3.9-12.2-8.9c-5.8-10.2-13.9-17.6-18.6-28.9c-5.2-12.7-7.9-26.2-11.3-39.5
			c-3.4-13.8-6.5-27.9-11-41.4c-2.5-7.3-3.8-18.6-13.1-14.5c-3.9,1.8-12.2,8.8-16.2,4.2c-8.1-9.4,14.1-16.7,11.2-23.4
			c-4.9,3.1-18.7,15.2-16.3,1.2c0.7-3.9,4.3-6.6,5-10.1c1.2-5.9-5.1-8.2-8.6-12.2c-3.8-4.4-4.5-6.7-10.6-6.9
			c-7.2-0.2-13.7-1.2-20.6-3.4c-4-1.3-10.9-5.9-15-5.4c-6,0.7-7.1,9.6-8.7,14.8c-7,22.6-14.4,44.6-22.3,66.9
			c-4.5,12.7-6.8,26.3-11.9,38.8c-2.8,6.7-5.1,20.8-14.5,18.9c-7.2-1.4-10.9-2.7-18.5-1.3c-5.4,1-10.7,2.3-16.1,3.3
			c-13,2.4-26,4.1-39.2,4.8c-27.4,1.4-55.5-1.1-82-8.6c-24.2-6.9-46.7-18.4-67.8-32.3c-20.8-13.8-44.3-22.8-64-38.3
			c-10.6-8.3-20.5-17.5-31.2-25.8c-9.5-7.3-19.3-14.1-28.4-22c-21.1-18.3-39.3-40.9-58.3-61.5c0,26.6,1.8,53.1,2.7,79.7
			c0.8,24.9,0.5,49.6,2.4,74.5c1.8,24.1,1.3,48.3,2.8,72.4c0.4,5.9,7.9,16.2,3.5,21.1c-5.3,6-24.4,0.8-31.2,0.3
			c0,16-0.1,32.1,0,48.1c0.1,15.1-0.7,31,1.2,46c1,7.7,14.7,21.2,1.9,25.7c-5.2,1.8-11.6,0.8-17,1.4c-6.3,0.7-12.6,1.8-18.9,2.6
			c-14.2,1.8-29,1.1-43.3,1.6c-61.1,2.1-122.4,4.7-183.6,1.2c-8.4-0.5-16.7,0.5-25.1,0.4c-4.9,0-12,0.6-16.3-2.4
			c-10.6-7.4-0.1-16.5-1.4-24.9c-2-12.8-4.2-24.5,6.4-34c9.2-8.3,22.2-11.5,34.2-11.7c11.7-0.2,23.2-1.8,34.7-2.3
			c7.4-0.3,14.4-2.1,21.9-2c6.7,0.1,12.5-0.1,19.2-1c4.2-0.5,12.1-0.4,15.4-3.4c3.5-3.2,1.7-8.2,2.3-12.4c2.5-18,12.6,3.2,17.5,6.6
			c2.9,2.1,9.3,3.4,12.4,0.9c3.5-2.9,0.6-7.6,0.6-11.6c0-5.2,2.4-10.1,7.6-6.6c3.6,2.4,4.5,7.8,7.6,10.7c4.4,4.1,22.1-0.8,24.7-6.8
			c2.2-5.3,1.1-14.9,2-20.8c1-6.4,2.8-13.5,2.5-20c-0.2-4,0.5-3.2-3-4.8c-2.3-1.1-5.1-0.9-7.6-1.3c-6.3-0.9-12.6-2.2-18.8-3.7
			c-12.8-3.1-25.9-6-38.4-10.2c-10.2-3.4-26.5-10.5-29.4-22.3c-1.5-6,0.2-13.1,0.2-19.2c0.1-7.2-0.1-14.5-0.5-21.7
			c-0.7-15.1-2.5-30.2-1.9-45.4c0.6-15.3,0.8-30.7,1.1-46c0.3-14.5,2.3-28.6,2.4-43.1c0.1-15.5,1.5-31.1,3.3-46.4
			c3.5-29.3,6.2-59.1,10.6-88.3c2.3-15.3,5.7-30.5,8-45.8c2.4-15.7,4-31.6,7.5-47.1c3.3-14.7,5.2-29.5,8.4-44.2
			c2.8-12.6,11.2-26.5,8.1-39.6c-3.3-13.8-8.2-26.8-10.5-41c-1.3-7.7-2.2-15.6-3.2-23.3c-0.6-5.2,1.4-13.2-0.2-17.9
			c-1.5-4.4-6.4-7-1.7-11.9c3.3-3.4,7.3-0.9,9.8-5.3c2.1-3.5,2.1-9.5,3.1-13.4c1.8-6.9,3.9-13.8,6.4-20.5
			c4.9-13.3,12.3-25.6,19.3-37.8c3.6-6.3,7.4-12.4,11.8-18.1c2.5-3.2,8.3-7.6,9-11.8c-10.3,0-22.6,5.6-32.6,1.7
			c-6.8-2.6-9.4-15.1-8.9-22c-34.9,3.3-69.1-2.6-104-1.7c-27.5,0.7-54.8,0.8-82.1,3.5c-11.3,1.1-22.8,0.8-31.1,9.6
			c-8.3,8.7-12.1,21.3-17.2,32c-9.7,20.3-25.4,54.4-52.5,53.6c-27.8-0.9-13.1-55.9-11-71c-10.4,9.9-39.4,40.7-55.1,26.5
			c-15.3-13.8,2.3-44.1,8.1-58.3c-13.5,7.1-29.7,16.7-45.5,16.6c-16.1-0.2-17.6-21.8-15.6-34.1c2.2-13.8,13-27.5,21.7-37.9
			c9.5-11.3,22.2-21.4,34.5-29.2c52.6-33.6,119.1-30,178.4-27.8c14.2,0.5,28.6,4.7,42.7,6.7c12,1.7,24.4,2.7,36,5.3
			c7.1,1.6,14.6,2,21.8,3.3c7,1.2,13.5,3.6,20.4,4.9c14.8,2.8,29.7,5.8,44.6,8.1c4.4,0.7,13.2,3.5,17.7,2.5c4.2-1,7-8,10.6-10.9
			c5.4-4.3,9.1-2.8,15.3-3.4c6.8-0.6,13.5,0.1,20.3,0.6c15.7,1.2,31.6,1,47.3,1.3c14.6,0.3,30.4,2.7,44.7,0.8
			c6.5-0.9,13.1,0.8,19.6-0.1c6.7-0.9,12.2-5.3,18.1-8.4c12.8-6.8,25.2-14.4,39-19.1c14.1-4.8,29-6.9,43.8-7.1
			c7.1-0.1,15.5,1.7,22.4-0.2c5.7-1.5,9.7-6.3,14.2-9.9c-11.7-2.6-19.3-5.9-24.3-17.6c-4.8-11.4-3.7-24.1-9.3-35.1
			c-4.4-8.6-5.3-21.7,4.9-26.3c5.1-2.3,8-2.3,10.8-8c2.7-5.5,4.5-11.3,7.5-16.7c10.6-19.3,21.1-39.2,43.3-45.9
			c18.4-5.5,38.5-2.4,56,4.7c21.6,8.8,28.9,26.8,30.8,49.2c0.6,6.8,1.8,13.7,0.6,20.4c-1,5.7-3.7,11-5.6,16.4
			c-4.2,11.5-10.5,19.9-18.7,28.9c-7.1,7.8-14.3,14.4-19.8,23.4c-3.4,5.5-5.9,11.2-8.6,17.1c-5.2,11.3-12.6,19.7-19.7,29.5
			c-3.7,5.1-1,5.8,1.8,10.5c2.3,3.8,3.5,8.1,4.8,12.3c7.6,23.7,8,48.6,8.1,73.3c0.1,11.9-0.3,23.8,1.5,35.5
			c1.6,9.8-4.1,8.5-12.1,10.7c5.2,18.8,9.9,38.5,17.3,56.5c6.7,16.3,17.1,28.8,30.2,40.1c21.8,18.9,52.7,27.6,80.7,30.3
			c32.9,3.3,60.9-4.9,89.8-20.3c14.5-7.7,27.7-16.7,40.3-27.3c5.7-4.9,11.5-9.7,17.3-14.5c3-2.5,7.5-7.4,11.7-7
			c14,1.4,4.5,27.6,1,34c-6.9,13-16.7,24.2-23.1,37.5c12.4-6.7,42.8-25.1,54.3-7c7.9,12.4-8,30.2-14,40.2
			c7.1-2.7,26.7-11.3,29.5,1.7c2.2,10.2-6.6,27-11.6,35.1c-13.5,22.3-33.2,42.4-52.8,59.1c-18.4,15.6-38.6,24.1-60.2,33.8
			c-21.9,9.8-45.7,17.4-69.6,19.6c-25.3,2.3-47.7-2.5-71.3-11.5c-19.8-7.5-40.5-16.3-56.9-30.6c-36-31.4-60.4-72.6-78.4-116.9
			c-9.8-24-12.9-49.1-17.1-74.6c-1.2-7.6-2.4-15.1-3.1-22.8c-0.3-3.9-0.1-7-2.1-10.1c-0.6-0.9-2.5-0.8-3.2-1.8
			c-1-1.4-1.1-4.1-1.4-5.6c-1.4-6-3.7-11.6-6-17.3c-2.3,9.5-4.8,19-6.8,28.5c-1.2,5.5-4.5,13.5-1.3,18.7c3.6,5.7,11.9,4.9,12.9,12.5
			c0.5,3.6-1,6.6-0.1,10.4c0.9,4.1,2.6,8.1,3.8,12.1c4.7,15.7,6,30.7,5.1,46.7c-1,16.5-4.6,32.7-4.8,49.2
			c-0.3,33.2-9.5,65.9,3.1,98.4C556,745,574.1,774.1,597,795c22.5,20.5,49.5,37.3,78.8,44.9c32.1,8.3,64.6,18.4,97.5,22.6
			c32.4,4.1,69.8,4.6,101.6-4.1c8-2.2,15.4-5.6,22.6-9.7c4.8-2.7,11.6-8.7,14.8-1.3c1.1,2.4,1,5.7,0.4,8.2c-0.3,1.3-2.5,3.8-2.1,5
			c1,3.1,6.9,2.9,9.3,3c12.1,0.4,24.4,0.2,36.5,0.3c8.2,0.1,16-2.4,24.1-3.1c7.5-0.7,15.2-1.1,22.7-1.3c7.4-0.2,15.3-0.7,22.6,0.7
			c5.9,1.1,9.8,4.4,14.3-0.7c3.2-3.6,5.6-9.3,9.6-4.3c1.1,1.4,4.4,9.5,2.7,10.7c4.2-3.1,9.1,20.4,8.9,23.9c-0.1,1.3,0.2,3-0.3,4.2
			c-0.6,1.6-3.4-0.3-2.4,2.8c0.3,1.1,3.2,0.8,4.1,2c1.1,1.5,0.5,4.2,0.4,5.8c-0.3,5.4-1.3,10.7-1.3,16.2c0,3,0.1,5.8-0.1,8.8
			c-0.6,1-1,2.1-1.3,3.2c0.4,1.1,0.9,2.1,1.5,3.1c1.1,6.1,1.9,12.6,2.1,19c0,2.3,0.5,4.8,0.4,7c-0.1,2.3-0.6,3-0.8,4.9
			c-0.4,3.1-0.3,5.9-0.2,9.2c0.1,2.5,2.3,6.3,2.2,8.6c-0.1,1.9-2.3,3.4-2.4,4.9c-0.1,2.9,0.9,1.8,1.7,4.2c1.5,4.8,2,10.2,2.6,15.2
			c0.6,5.3,1,9.7-2.9,13c-1,0.9-3.1-0.8-3.7,1.9c-0.7,3.4,1.8,1.5,3,2.3c1.8,1.1,2.2-0.9,3.8,1.8c0.5,0.9,0.5,4,0.1,5.1
			c-1.2,3.6-7.4,5.5-2.2,10c0.6,0.5,1-0.5,2.2,1.6c1.6,2.8,1.2,8.7,0.8,11.9C1069,1058.3,1069.2,1070.4,1065.5,1068.7"/>
	</g>
</g>
<g id="Illustrations_x2F_sitting-reading">
	<g id="Ink_1_" transform="translate(67.995213, 33.042686)">
		<path id="ink-layer_1_" class="st1" d="M770.3,1311.3c10.7,4.1,21.9,5.7,32.7,9.5c9.6,3.4,18.5,8,28,11.4c0.5-4.4,0.9-11.8-0.8-16
			c-2.3-5.8-8.3-6-14.3-8.1c-14.5-5.1-29.7-6.1-44-12.1C774.3,1300.8,773.3,1307.1,770.3,1311.3 M954.3,1296c-23,0.7-45,6-67.7,9.4
			c-11,1.6-22.1,3-33.1,4.5c-4.2,0.6-12-0.1-15.1,3.6c-2.6,3,0.2,13.5-0.9,17.9c4.6,0.3,12.9-4,17.9-4.7c7.9-1.1,15.6-2.7,23.6-3.2
			c12.6-0.8,24.9-1.4,37.5-2.8c12.8-1.4,25.1-4.1,38-5c6.3-0.5,8.8,0.7,9.2-5.9c0.1-2.6,0.5-6.9-0.2-9.5c1.2-3.1,0.1-4.6-3.1-4.6
			C958.3,1295.4,956.3,1295.5,954.3,1296 M909.8,1274.9c6.2-0.6,12.5-1.4,18.7-1.8c1.3,0,7.7,0.3,8.7-0.9c1.5-1.6-0.2-7.8-0.4-9.6
			c-0.9-6.4-1.9-10.1-8.9-10.1c-5.9,0-12,1.3-17.9,1.8c-26.7,2.6-53.2,3.7-79.5,8.7c1.6,6.8,3.4,13.9,1.5,20.9
			c12.6,0.7,26.5-1.8,38.9-4.3C883.4,1277,896.8,1275.8,909.8,1274.9 M867.6,1210.5c-9.5,0-19.6,4.2-29,3.3
			c-0.1,1.7,2.8,0.3,3.7,1.9c1.8,0,2.4,0.6,1.8,1.7c0,0.8-0.4,1.3-1.2,1.4c-0.4,0-0.8,0-1.3,0.1c-1.8,0-2.1,1.3-0.9,3.7
			c-0.5,3,0.2,6.8,0.4,9.7c16.9-2.3,33.3-4.7,50.3-5.7c8-0.5,16.1-0.5,24.1-1.2c8.8-0.7,18.5,0.8,27.1-0.8c4.6-0.9,4.1-0.8,3.8-6.8
			c-0.2-3.7-0.1-8-3.1-10.6c-5-4.4-16.3-1.9-22.1-1.7C903.3,1206.1,885.2,1207.7,867.6,1210.5 M877.3,1296.2
			c25.5-2.3,50.8-7.4,76.5-7.4c-1.8-1.8-5.8-2.3-8-3.3c-2.6-1.1-5-3.5-7.5-4.5c-5.1-2-10.2,0.8-15.4,2c-12.5,2.8-25.3,2.9-37.9,5.8
			c-13,2.9-26.1,5.6-39.3,7c-6.3,0.7-13,2.1-19.2,0.5c-0.5-0.3-1-0.7-1.5-1.1c-0.5-2.3-2-2.9-4.5-1.8c-3.1-0.6-7.1,0.2-10.3,0.2
			c-0.1,1.3,11.5,5.2,13.7,6.2c5.4,2.4,9,4.1,14.7,3.1C851.5,1300.6,864.2,1297.9,877.3,1296.2 M787.5,1221.6c1,3.9,5.2,2.1,8.8,2.6
			c4.8,0.6,9.6,2.2,14.3,3.5c8.5,2.3,17,4.5,25.5,6.9c-0.3-3.4,0.4-11.2-1.4-14.2c-1.9-3.2-10.9-4.6-15.1-5.5
			c-10.6-2.5-21.9-1.1-32.6-0.5C787.3,1216.7,787.4,1219.1,787.5,1221.6 M889,1245.9c10-0.9,20.1-1.5,30.1-1.9
			c11.5-0.4,3.1-2.2,2.9-9.3c-15.1,2.4-30.3,2.9-45.4,4.9c-12.5,1.7-27.4,6.2-40,3.8c-6-1.1-12.1-1.5-18.5-2.2
			c-6-0.6-11.7-3.4-17.7-4.1c-6.7-0.8-13.5,3-20.2,4c-2.8,0.4-3.5,2.3-4.8-1.1c-1.4-3.5,2.6-6.4,4.1-8.5c1.8-2.5,1.1,1.5,2.1-2.3
			c0.3-1.1-0.5-3.8-0.6-4.9c-0.3-2.9-1.3-6.1-1.4-9c-0.1-2.7-0.1-6.8,2.7-8.3c1.8-1,3,0.4,4.6,0.1c12.1-2.1,26.3-2.3,38.6-0.2
			c13.3,2.2,24.7-3.6,37.9-6c15.4-2.7,30.9-3.2,46.4-4.3c13.3-1,37.5-6.2,42.5,10.8c1.4,4.8,3.5,18-0.3,22.1
			c-5.1,5.4-16.7,3.7-23.3,5.1c1,2.8,3.9,4.7,2.9,8c9.2,0.4,10.8,9.1,12.2,17.1c1.5,8.3-1.4,11.7,6.6,16
			c11.1,6.1,22.9,12.2,22.7,26.6c-0.1,7.2-0.9,18.2-8.4,21.9c-7.3,3.7-19.1,3-27.2,4.4c-15.5,2.6-31.2,5.6-46.8,7.2
			c-16.6,1.6-33.6,3-50.3,3.8c-9.1,0.4-16.9,1.8-25.7-1.3c-8.6-3-17.1-5.2-26-7.4c-8.8-2.2-35.7-5.2-27.9-20.2
			c1.3-2.4,5.5-4.3,6.2-6.6c1.1-3.7-2.7-6.5-2.5-9.8c0.3-6.1,7.1-6.8,11.9-6.8c-8.1-5.1,2.7-11,2.7-15.4
			c-0.1-7.6-9.6-12.5-10.1-18.9c-1.3-15.5,47.8,0.6,55.3,4c-5.8,8.6-32.8,1.2-40.8-0.1c1.1,2.9,2.1,5.5,2.5,8.4
			c0.2,2.4-0.7,5.2,0.2,7.6c1.3,3.8,1.3,3.1,6,4.1c3.5,0.8,6.9,1.6,10.4,2.5c5.3,1.3,13.7,4.6,19,4.4c4.6-0.1,3.7,1.3,4.5-3.9
			c0.4-2.7-0.3-5.7-0.8-8.4c-1-5.6-2.4-11,2.6-15.1c4.7-3.9,14.7-5.7,20.5-7.1C861,1246.5,875.8,1245.8,889,1245.9"/>
		<path id="ink-layer_3_" class="st1" d="M1083.6,1332.5c-6,6.7-11.7,13-18.2,18.9C1070.1,1351.2,1085.4,1340.8,1083.6,1332.5
			 M1081.2,1321.6c-3.3-4-6.6-3.6-10.7-4.8c-3.8-1.1-7.4-3-11.1-4.3c-2.9-1-5.8-2.4-8.8-3.3c-4.1-1.4-4.5,0.1-8.3,3.2
			c-13.5,10.9-28.6,18.3-42.8,27.2c4.2,5.2,13.6,5.4,18.8,7c3.8,1.2,7.4,2.8,11.1,4.8c3.4,1.8,8.9,5.9,12.4,6c3,0.1,5.5-4.1,8.1-6.4
			c3.4-3,6.8-5.9,10.3-8.8C1067.5,1336.1,1074.3,1328.6,1081.2,1321.6 M1020.2,1365.6c-1.5-2.1-6.3-2-8.2-2.7
			c-3.9-1.3-7.7-2.6-11.5-3.5c-6.3-1.5-16.4-2.2-17-13.8c-0.6-9.6,7.7-11.9,12.5-15.2c7.2-4.9,14.7-9.5,22.1-13.7
			c7-4.1,14-7.5,21.2-11c1.4-0.7,2.5-0.6,3.6-2.2c0.9-1.3,0.6-3.6,1.6-4.9c2.2-2.9,5.2-1.4,7.8-0.6c6.1,1.7,12.4,4,18.3,7.2
			c6.1,3.3,11.5,4,12.9,13.7c3.1-2,5.4-2.4,5.1,3.7c-0.1,1.8-1,3.7-1.3,5.5c-0.3,2.7,0.2,5.5-0.1,8.2c-1.2,9.8-10.5,17.1-16.4,20.9
			c-7.1,4.7-16.4,11.8-24.4,12.7C1037.9,1370.7,1028.7,1366.1,1020.2,1365.6"/>
		<path id="ink-layer_2_" class="st1" d="M951.8,1148.5c-13.9-2.3-28.1-2.9-42.2-2.2c0.8,3.5,1.5,7,2.3,10.5
			C925.1,1153.3,938.5,1151.3,951.8,1148.5L951.8,1148.5z M838.5,1175.5c-5.6-0.4-1.7,2.1-0.3,5.7c1.7,4.5,1.4,10.2,1.7,14.9
			c16.4-6.2,35.4-9.9,52.8-12c8.2-1,16.6-1.3,24.9-1.7c2.5-0.1,11.3,0.9,13.1-0.8c1.4-1.2,0.4-8-0.9-9.5c-6.9-8.1-33.9-1.1-43.6-0.4
			C870.2,1173.1,854.5,1175.9,838.5,1175.5L838.5,1175.5z M861.7,1153.8c14.5,1.4,28.5,1.3,42.9,3.4c-1.1-9.2,0.2-11.6-10.2-12.1
			c-9.3-0.4-18.6-0.8-27.8-0.8c-20.8,0-41.6-0.4-62.5-0.4v9.4C823.4,1151.4,842.4,1154.9,861.7,1153.8L861.7,1153.8z M792.1,1188.2
			c9.1,0,17.8,3.4,26.9,4.3c5.5,0.5,3.8,1.2,7.5,4c5.9,4.3,7.6,2,6.8-3.8c-2.5-19.7-27.4-15.2-41.8-16.4c1,4.7-1.2,8.7-4.4,11.9
			L792.1,1188.2L792.1,1188.2z M890.9,1162.9c-13.1,0.2-26.3,1-39.4,0.7c-5.8-0.1-13.4-1.3-19.2-0.3c-4.2,0.7-7.7,2.8-12.3,3.7
			c6.8,3.6,10.2,1.2,17.3,0.3c7.1-0.8,14.3-0.8,21.4-1.3c11.7-0.7,24.2-3.5,35.7-2.7C894.7,1161.7,893.5,1161.6,890.9,1162.9
			L890.9,1162.9z M786.6,1205.5c-6,0,2.3-6.8,3.4-7.6c-6.7,0-8.3-4-6.4-10.4c1.8-6.1,3.2-4.2-1.4-9.3c-3.5-3.8-4-6.6,0.1-10.9
			c4.1-4.3,12.5-3.1,16.2-6.7c6.3-6.1-1.8-18.2,6.8-22.8c5.8-3.1,15.3-2.7,21.8-3.4c6.2-0.6,12.7-0.8,19-0.9
			c13.7-0.2,27.9,2.1,41.6,3.4c5,0.5,10.6,2.5,15.5,2.5c5,0,10.2-1.1,15.4-1c6,0.1,11.8-0.3,17.9,0.7c4.7,0.8,15.8,1.2,19.4,4.7
			c12.1,11.7-16.5,17.1-21.5,18.4c5,5.5,4.8,12.7,4.1,19.7c2.4,0,6.5-1.1,7.7,1.6c1.5,3.3-4.1,4.2-5.5,4.6
			c-7.7,2.2-16.7,1.6-24.7,2.4c-15.9,1.6-31.6,2.6-47.4,5.5c-7.7,1.4-15.3,3.3-23,4.7c-1.3,0.2-2.7,0.4-4,0.6
			c-2.1-0.2-2.7,1.1-2,3.9c-2.1,1.1-10.1-1.5-12.5-1.9C813.1,1201.2,800.5,1202.1,786.6,1205.5L786.6,1205.5z"/>
		<path id="ink-layer_18_" class="st1" d="M707.7,1240.9c1.2,0,2.3-0.1,3.4-0.1C710,1240.8,708.9,1240.9,707.7,1240.9"/>
		<path id="ink-layer_24_" class="st1" d="M681.4,1243.2c1.2,0,2.3,0,3.4,0C683.7,1243.1,682.6,1243.1,681.4,1243.2"/>
		<path id="ink-layer_30_" class="st1" d="M666.6,1373.7c1.2,0,2.3,0,3.4,0.1C669,1373.8,667.8,1373.8,666.6,1373.7"/>
		<path id="ink-layer_31_" class="st1" d="M716.9,1283.2c0.8,0,1.5,0,2.3,0C718.4,1283.1,717.6,1283.1,716.9,1283.2"/>
		<path id="ink-layer_32_" class="st1" d="M688.3,1286.6c0.8,0,1.5,0,2.3,0C689.8,1286.6,689,1286.6,688.3,1286.6"/>
		<path id="ink-layer_34_" class="st1" d="M711.1,1293.1c-1,1-2.3,0.4-3.4,0.5C708.9,1293.5,710,1293.3,711.1,1293.1"/>
		<path id="ink-layer_36_" class="st1" d="M674.6,1295.7c-1.5,0-3,0-4.6,0C671.5,1295.7,673,1295.7,674.6,1295.7"/>
		<path id="ink-layer_40_" class="st1" d="M681.4,1246.4c-1.5,0.1-3,0.2-4.6,0.4C678.4,1246.7,679.9,1246.5,681.4,1246.4"/>
		<path id="ink-layer_47_" class="st1" d="M632.3,1388.3c0.8,0,1.5,0,2.3,0C633.8,1388.2,633,1388.3,632.3,1388.3"/>
		<path id="ink-layer_106_" class="st1" d="M739.7,1364.5c2.7-0.1,5.4-0.3,8-0.4C745,1364.2,742.4,1364.4,739.7,1364.5"/>
		<path id="ink-layer_107_" class="st1" d="M739.7,1344.8c-1.5,0-3,0-4.6,0.1C736.6,1344.9,738.2,1344.8,739.7,1344.8"/>
		<path id="ink-layer_108_" class="st1" d="M716.9,1322.2c1.9-0.1,3.8-0.3,5.7-0.4C720.8,1322.8,718.7,1322,716.9,1322.2"/>
		<path id="ink-layer_109_" class="st1" d="M695.1,1324.5c1.9-0.1,3.8-0.3,5.7-0.4C698.9,1324.2,697,1324.4,695.1,1324.5"/>
		<path id="ink-layer_110_" class="st1" d="M663.1,1345c1.5-0.1,3-0.2,4.6-0.3C666.2,1344.8,664.7,1344.9,663.1,1345"/>
		<path id="ink-layer_111_" class="st1" d="M671.1,1345c1.5-0.1,3-0.2,4.6-0.4C674.2,1344.8,672.7,1344.9,671.1,1345"/>
		<path id="ink-layer_112_" class="st1" d="M676.8,1343.9c1.5-0.1,3-0.3,4.6-0.4C679.9,1343.6,678.4,1343.8,676.8,1343.9"/>
		<path id="ink-layer_113_" class="st1" d="M684.8,1304.8c-1.2,0-2.3,0-3.4,0C682.6,1304.8,683.7,1304.8,684.8,1304.8"/>
		<path id="ink-layer_114_" class="st1" d="M713.4,1367.8c1.5-0.1,3-0.2,4.6-0.4C716.6,1368.4,714.9,1367.8,713.4,1367.8"/>
		<path id="ink-layer_115_" class="st1" d="M670,1276.5c1.5-0.1,3-0.3,4.6-0.4C673,1276.2,671.5,1276.4,670,1276.5"/>
		<path id="ink-layer_116_" class="st1" d="M664.3,1258c-1.2,0-2.3,0-3.4,0C662,1258,663.1,1258,664.3,1258"/>
		<path id="ink-layer_117_" class="st1" d="M652.9,1260.3c-0.8,0-1.5,0-2.3,0C651.4,1260.3,652.1,1260.3,652.9,1260.3"/>
		<path id="ink-layer_120_" class="st1" d="M728.2,1273.8c1.2,0,2.3,0,3.4,0C730.6,1274.6,729.4,1274.4,728.2,1273.8"/>
		<path id="ink-layer_121_" class="st1" d="M684.8,1256.8c-0.8,0-1.5,0-2.3,0C683.3,1256.9,684.1,1256.8,684.8,1256.8"/>
		<path id="ink-layer_122_" class="st1" d="M655.1,1329.1c1.5-0.1,3-0.3,4.6-0.4C658.2,1328.8,656.7,1328.9,655.1,1329.1"/>
		<path id="ink-layer_123_" class="st1" d="M636.8,1331.3l4.6-0.4L636.8,1331.3z"/>
		<path id="ink-layer_124_" class="st1" d="M726,1365.6c1.5-0.1,3-0.3,4.6-0.4C729,1365.3,727.5,1365.5,726,1365.6"/>
		<path id="ink-layer_125_" class="st1" d="M671.1,1372.5c1.5-0.6,3-0.8,4.6,0C674.2,1372.5,672.7,1372.5,671.1,1372.5"/>
		<path id="ink-layer_126_" class="st1" d="M668.7,1215l-2.2-0.7c2.7,0,5.4,0,8-0.1C674.6,1214.2,669,1215,668.7,1215"/>
		<path id="ink-layer_127_" class="st1" d="M648.3,1195.2c-1.9,0-3.8,0-5.7,0C644.5,1195.2,646.4,1195.2,648.3,1195.2"/>
		<path id="ink-layer_129_" class="st1" d="M691.7,1220.3c-1.2,0-2.3,0-3.4,0C689.4,1220.3,690.6,1220.3,691.7,1220.3"/>
		<path id="ink-layer_130_" class="st1" d="M667.7,1205.3c1.9,0.1,3.8,0.2,5.7,0.4C671.5,1205.5,669.6,1205.4,667.7,1205.3"/>
		<path id="ink-layer_131_" class="st1" d="M643.7,1217.1c1.9-0.1,3.8-0.3,5.7-0.4C647.5,1216.8,645.6,1217,643.7,1217.1"/>
		<path id="ink-layer_132_" class="st1" d="M658.5,1214.8c1.5-0.1,3-0.2,4.6-0.4C661.6,1214.5,660.1,1214.6,658.5,1214.8"/>
		<path id="ink-layer_133_" class="st1" d="M646,1204.1c1.5,0.1,3,0.2,4.6,0.4C649,1204.4,647.5,1204.3,646,1204.1"/>
		<path id="ink-layer_135_" class="st1" d="M648.3,1214.6c-0.8,0-1.5-0.1-2.3-0.1C646.8,1214.6,647.5,1214.6,648.3,1214.6"/>
		<path id="ink-layer_136_" class="st1" d="M633.4,1214.6c-0.8,0-1.5,0-2.3,0C631.9,1214.6,632.7,1214.6,633.4,1214.6"/>
		<path id="ink-layer_137_" class="st1" d="M674.6,1213.6c0,0.3,3.4-1.2,3.4,0.2L674.6,1213.6z"/>
		<path id="ink-layer_138_" class="st1" d="M662,1195.2c-0.8,0-1.5,0-2.3,0C660.5,1195.2,661.2,1195.2,662,1195.2"/>
		<path id="ink-layer_150_" class="st1" d="M696.6,1330.6c-5.3-0.3-12.6-1.7-4.7-5.5c5.1-2.4,12.6-2.5,17.9-1.5
			c3.7,0.7,9.2,3.7,3.6,7.7C710.1,1333.5,700.6,1330.7,696.6,1330.6"/>
		<path id="ink-layer_151_" class="st1" d="M782,1394.6c-1.5-0.2-3-0.3-4.6-0.5C778.6,1391.8,782.2,1391.4,782,1394.6"/>
		<path id="ink-layer_152_" class="st1" d="M697.5,1330.3c1.5,0,3,0,4.6,0.1C700.6,1330.4,699.1,1330.4,697.5,1330.3"/>
	</g>
</g>
<g id="Character_x2F_zombieing">
	<g id="Ink_2_" transform="translate(160.999594, 54.000301)">
		<path id="Fill-7_1_" class="st1" d="M951.8,243.1c0.3-0.5,0.6-1.1,1-1.6C953.2,242.4,953.3,242.8,951.8,243.1 M952.3,245.6
			c-0.7,0.1-0.4-1.5-0.4-1.8C953.1,244.3,952.1,244.9,952.3,245.6 M951.2,241c0.6-0.3,1.2-0.5,1.8-0.8c-0.8,1.1-0.5,0.4-0.2,1.2
			C952.2,241.5,951.6,241.4,951.2,241 M947.6,249.7c-2.3,5.9-9.4,10.5-16.9,12.9c-4.3,1.4-8.6,1.7-13.3,1.6
			c-1.8-0.1-3.9-0.5-5.7-0.4c-1.3,0.1-1.3,0.1-2.4,0.9c-0.5-0.6-0.1-1.1-1.1-1.5c-1.2-0.5-1.7,0.1-2.3,0.7c-0.8-0.6-1.1-0.9-2.2-1.3
			c0,0-1,0-0.9,0c-0.2,0-1.3-0.6-1.6-0.6c-1.4-0.4-3.1-0.5-4.4-1.1c-1.2-0.5-2.1-1.8-3.4-0.8c0-1.7-3.3-2.5-4.8-3.4
			c-2.4-1.4-4.3-3.5-5.5-5.5c-1.3-2.2-1.7-4.2-2.3-6.5c-0.4-1.6-3.1-3.8-1.5-5.4c0.4,0.7,0.2,1.3,0.9,1.9c0.6-0.8,0.9-1.7,1.2-2.6
			c0.1-0.4,0.9-1.7,0.8-2.1c-0.2-0.8-1.5-0.8-0.8-1.7c1.5,1.2,2.8-0.9,1.6-1.7c-0.6,0.5-0.8,1-1,1.5c-1.5-2.2,2.6-1.5,1.7-3.4
			c1.5-0.2,2.4-0.5,3-1.6c0.6-1.2,0.2-1.5,1.6-2.2c0.5-0.3,1.9-0.7,2.2-1.1c0.5-0.9-0.8-1.1,0.3-1.9c0.4,0.5,1.8,1.4,2.6,0.5
			c0.2-0.2-0.5-0.3,0-0.7c0.7-0.6,1.5-1.2,2.8-1.1c-1-1.7,5.3-1.9,6.8-2.3c1.6-0.4,3-0.7,4.6-0.8c1.7-0.1,1.8-0.5,3.2-1.2
			c0.1,1,0.5,0.8,1.5,1c0.2-0.3,0.5-0.3,0.8-0.1s0.6,0.3,1,0.3c0.6,0,1.2,0,1.8,0c1.4,0,2.8-0.1,4.2,0c0.4,0,0.7-0.1,1-0.3
			c0.1,0.2,0.3,0.3,0.4,0.5c0.7,0.1,0.8,0.7,1.7,0c0.3,0.9,1,0.4,1.8,0.7c0.7,0.2,0.8,0.6,1.5,0.8c0.4,0.3,0.9,0.3,1.4,0.1
			c0.5,0.3,1,0.5,1.5,0.8c0.9,0.4,2,0.6,3,0.9c0.6,0.2,1.3,0.4,1.9,0.6c0,0.6,0.4,0.7,1,0.6c0.6,0.4,0.8,0.3,1.4,1
			c1.3,1.4,2.5,2.5,4.2,3.7C948.1,234.8,950.4,242.5,947.6,249.7 M949.9,226.6c-3.3-3.2-8-6.8-12.1-8.8c-2.1-1-5.1-2.8-7.7-3.4
			c-0.6-0.1-1.3-0.1-1.9-0.3c-0.5-0.1-0.7-0.4-1.3-0.5c-0.4,0-0.4,0.6-0.8,0.5c-0.8-0.1-1.4-0.7-1.9-1.1c-1.3,1.6-1.9-1.1-3.8,0.7
			c-2.2-2.5-7.3-1.9-10.9-1.8c-1,0-1.5,0.3-2.4,0.5s-0.9,0.1-1.9,0.1c-2.3,0-4.4,0.2-6.6,0.9c-3.6,1.2-6.9,3.2-10.4,4.6
			c-3.8,1.7-7.3,3.8-10.3,6.2c-10.6,8.8-13.5,21.6-5,31.8c13.5,16.2,48.2,17.9,67.9,6.9C956.1,254.6,961.9,238.1,949.9,226.6"/>
		<path id="Fill-11_1_" class="st1" d="M978.6,271.1c-3.1-0.8-8.3-0.6-9.1,2.3c-0.3,1.2,0.3,2.5,1.5,3.4c1.3,1,3.5,1.1,3.4-0.7
			c-0.1-1.2-1.7-2.3,1.2-2.5c1.8-0.2,4.4,0.8,4.5,2.2c0.2,3.2-7.5,3.4-10.3,2.9c-5.6-1.1-4.1-5.3-0.2-7.2c1-0.5,3.8-1.3,4-2.3
			c0.2-1.4-2.2-1.1-3.3-0.9c-8.5,1.3-10.3,11.5-1.5,13.4c4,0.9,9.7,0,12.1-2.6C983,276.5,983,272.2,978.6,271.1"/>
		<path id="Fill-13_1_" class="st1" d="M866.1,199c-2.7,0.9-5.3,1.8-8,2.7c-0.9-1.3-2.4-5-4.6-5.5c-3.6-0.8-1.3,3.2-0.7,4.2
			c0.5,0.8,1.7,1.9,1.4,2.8c-0.4,1.2-2.8,1.6-4,2.3c-3.1,1.5-3.1,4.8,1.4,3.4c2.5-0.8,5.6-2.9,7.6-0.5c0.9,1.1,3,7.4,5.2,3.3
			c1.4-2.6-5.2-5.2-2-7.4c1-0.7,2.3-0.8,3.3-1.2C868.3,202.2,866.9,200.4,866.1,199"/>
	</g>
</g>
<title>Character/zombieing</title>
<desc>Created with Sketch.</desc>
<g id="Character_x2F_zombieing_1_">
	<g id="Ink_3_" transform="translate(160.999594, 54.000301)">
		<path id="Fill-5_1_" class="st1" d="M355.5,9.2c10.9,7.7,23.5,13,34.9,20c2.9,1.7,11.8,5.4,11.7,8.6c-0.1,1.9-2.7,4.3-3.9,5.6
			c-2,2.3-3.9,4.5-5.7,6.9c-8.6,10.9-16.5,21.9-25.7,32.3c-1.4,1.6-5.5,9-6.9,5.3c-0.6-1.7-0.1-3.6-1.7-5.1c-0.8-0.8-4-1.2-3.1-3
			c0.6,0.3,1.2,0.6,1.8,0.8c-0.5-1.4-0.4-2.9-1.2-4.2c-0.4-0.8-1.3-1.2-1.6-2.1c-0.4-1.3,0.3-2.7,0.2-4s-0.8-2.5-1.2-3.7
			c-2.4-7.2-3.2-14.5-4.4-22c-1.2-7.4-3.1-14.6-3.8-22c-0.8-7.9-1.7-15.8-3-23.6c2.3,0.3,4,2.8,5.6,4.2
			C350.1,5.3,352.8,7.2,355.5,9.2 M347,85.6c-0.5-0.4-0.9-0.9-1.2-1.5C351.1,81.4,347.9,86,347,85.6 M343.7,80
			c-2.3,0.6-4,0.8-5.8-0.2c-0.2-0.1,0-0.8-0.3-0.9c-0.3-0.1-0.7,0-0.9-0.1c-0.8-0.4-2.2,0.5-2.3-1.1c3-0.9,5.9-2.6,9-2.9
			C347.8,74.4,347.6,78.9,343.7,80 M333.5,71.2c-3.2,0.7-5.8,2.5-9.2,2c-3.2-0.4-5.9-2.1-8.4-4c6.3-1.8,12.8-2.1,19.1-3.8
			c2-0.6,4.7-2,6.9-1.4c2.4,0.7,2.6,2.9,3.3,5C341.3,69.7,337.4,70.3,333.5,71.2 M313.6,62.3c-3.1,0.7-6.2,2.3-8.7-0.4
			c-0.4-0.4-0.8,0-0.7-1.4s1.4-2.4,2.5-2.9c2.7-1.2,6.4-0.4,9.2-0.6c4.5-0.3,9.1-1.2,13.5-1.9c3.1-0.5,6.3-1.6,9.4-1.4
			c2.4,0.2,5.4,2.2,1.8,3.7c-3.2,1.4-8.1,1.2-11.5,1.8C323.8,60.1,318.7,61.1,313.6,62.3 M310.6,48c0.2,0.2,0.4,0.4,0.6,0.6
			c0,0,1.2-1,1.5-1c1.6-0.1,3.1,0,4.7-0.1c3.6-0.2,7.2-0.8,10.7-1.5c2.9-0.6,5.8-1.5,8.7-1.3c2.6,0.2,2.8,0.7,3,3.2
			c-6.5,0-13.2-0.1-19.6,1.2c-4.2,0.9-8.8,3.6-10.8-1.2C309.7,47.9,310.2,47.9,310.6,48 M314.7,37.5c1.6,1.2,6-0.8,7.9-1
			c2.1-0.2,4.1-0.5,6.1-1c1.8-0.5,7.8-2.8,9.2-0.6c2.1,3.4-6.5,4-7.8,4.2c-5.7,0.7-11.6,1.3-17.2,2.8
			C313.5,40.5,314.1,39,314.7,37.5 M322.5,26c0.4,1.6,13.3-4.2,13.6,0c0.2,3.2-12.8,4.8-15.1,4.6C321.5,29,323,27.7,322.5,26
			 M326.9,16.1c0.3-3.2,0.7-3.2,3.2-3.4c1.9-0.2,4.6-1.4,4.1,2.1C333.8,17.7,326.6,19.3,326.9,16.1 M331.5,5.2c0.6-1.7,2,0.6,2,1.5
			c0.1,2.3-1.7,1.8-3.3,1.8C330.6,7.4,331.1,6.3,331.5,5.2 M352.7-7.6c-0.3-0.4-2.3-0.6-2.8-0.8c-1.3-0.5-1.2-1.5-2.9-0.5
			c-0.1-0.1,0.1-0.9,0-0.9c0,0-1.3-0.5-1.6-0.7c-0.9-0.6-1.8-1.2-2.7-2s-1.9-2-2.9-2.6c-0.4-0.3-0.8-0.7-1.3-0.7
			c-1.4-0.2-1,0.8-2.2,0.9c-0.8,0.1-1.3-0.8-2.3-0.4c-0.8,0.3-1.3,1.5-1.7,2.2c-1.4,2.6-2.4,5.3-3.8,7.9
			c-6.9,13.3-14.7,26.1-21.3,39.5c-3.2,6.5-6.6,13-8.8,19.9c-1.6,5-5.3,12.2-2.1,17.2c2.3,3.6,6.9,5.2,10.6,6.9
			c5.5,2.6,10.6,6,16.2,8.6c6.7,3,13.1,6.2,19.6,9.6c2.8,1.4,5.3,3.5,8,4.9c1.7,0.8,4.3-0.6,4.8,1.3c2.1-2.6,5.5-0.9,8-2.7
			c1.4-1.1,2.5-3.2,3.7-4.5c1.8-2,3.8-3.8,5.6-5.7c7.3-7.7,14-15.6,20.7-23.8c6.3-7.8,13.8-15.3,19.1-23.9c2.1-3.4,2.5-7,1.1-10.8
			c-1-2.7-3.5-6.9-7-5.1c1.3-2.2-3.8-4.6-5.4-5c0,0-0.3,1.7-0.8,1.7c0.2,0-1.3-3.8-2-4.3c-1.9-1.4-4.2-3.1-6.3-4.3
			c-1.9-1.1-3.9-1.6-5.8-2.9c-2.2-1.5-4.3-3.2-6.6-4.7c-2.2-1.4-4.6-3.1-7-4.1c-2.1-0.8-4-1-5.8-2.4c-2.3-1.7-4.4-2.9-7-4.1
			C357.6-4.7,354.4-5.6,352.7-7.6"/>
		<path id="Fill-9_1_" class="st1" d="M252.2,84.8c-0.5,1.2-5.1,0.8-5.2-0.6C246.8,82.1,253.1,82.8,252.2,84.8 M257.1,84.1
			c2.6,0.2,6.9,2,9.5,0.9c3.9-1.6-0.2-4.2-2.3-4.9c-2.1-0.8-5.2-0.4-6.3-2.6c-0.8-1.7,1.2-6.3-1.3-5.5c-2.6,0.8-1.9,7.4-6,5.2
			c-2-1.1-1.2-7.6-4.4-4.2c-0.9,0.9-1,2.6-2.2,3.2c-1.2,0.7-2.7,0-4,0c-3.4,0.2-4.5,3.3-1,4.6c1.3,0.5,6.1,1,3.2,3.1
			c-1.8,1.3-5.9-1.4-7.5,0.8c-2.2,3.1,3.6,3.2,5.2,4.1c2.6,1.6,0.5,5.3,0.7,7.9c0.3,4,2.7,3.2,3.5-0.2c0.7-2.9-0.2-7.1,4.2-5.9
			c7.1,1.9-4,10.9,1.3,13.2c3.3,1.5,3.8-6.5,4.1-7.9c1-5.1,3.8-3.9,8.1-3.7c5,0.2,6.3-3.5,0.9-4.6c-1.7-0.3-4,0.1-5.5-1
			C256.3,86.1,255.1,83.9,257.1,84.1"/>
		<path id="Fill-16" class="st1" d="M433.7-49.7c-2.1-0.8-4.6-2.2-6.9-1.7c-2.5,0.5-3.4,3-5.2,4.5c-4.8,4-7.7-2-10.3-5.2
			c-2.5-3.1-5.6-3.8-9.1-1.9c-1.4,0.8-7.4,4.2-6.3,6.5c0.7,1.6,3.7,0.2,4.7-0.2c2.2-0.8,4.2-1.4,6.4-0.3c4.2,2.1,5.3,7.8,10.3,8.6
			c5.2,0.9,5.4-4.1,9.1-5.9c2.5-1.3,4.2,1,6.7,0.5C435.3-45.3,436.3-48.7,433.7-49.7"/>
		<path id="Fill-19" class="st1" d="M391.5-29.6c1.8,0.4,3.1-3.2,4.2-4.1c1.9-1.5,5.2-1.8,7.2-0.3c3.8,3,2.5,9.4,7.9,11
			c4.9,1.5,7.1-4.9,11.2-6.5c2.4-0.9,5-1.5,4.1-4.9c-0.6-2.3-2.5-2.9-4.6-2c-3.5,1.5-4.7,7.7-8.9,7.8c-4.3,0.1-4.8-6.1-6.7-8.8
			c-2.8-4.1-8.7-5.1-12-1.2C393.1-37.4,388-30.4,391.5-29.6"/>
	</g>
</g>
<g>
	<g>
		<path d="M247.2,719.7L183.1,743l0.5-0.3l0,0l-0.1,0.1l-0.1,0.1l-0.2,0.3c-0.1,0.2-0.4,0.4-0.5,0.6c-0.3,0.4-0.6,0.8-0.9,1.2
			c-0.6,0.9-1.1,1.7-1.6,2.7c-0.9,1.9-1.6,3.8-2,5.8c-0.9,4.1-0.8,8.3-0.1,12.5c0.4,2.1,0.9,4,1.8,5.9s1.9,3.7,3.2,5.2
			c1.3,1.6,2.7,3.1,4.4,4.4c0.8,0.6,1.7,1.2,2.5,1.8c0.4,0.3,0.9,0.5,1.4,0.8c0.2,0.1,0.4,0.2,0.6,0.4l0.4,0.1l0.3,0.1l0,0l-1-0.1
			l65.7-8.7c0.6-0.1,1.3,0.4,1.4,1c0.1,0.6-0.4,1.2-1,1.4l-65.6,10.1c-0.4,0.1-0.6,0-0.9-0.1l0,0l0,0c-0.2-0.1-0.3-0.1-0.4-0.2
			l-0.4-0.2c-0.3-0.1-0.5-0.3-0.8-0.4c-0.5-0.3-1-0.6-1.5-0.9c-1-0.6-1.9-1.3-2.9-2.1c-1.8-1.4-3.5-3.2-5-5c-1.4-1.9-2.7-3.9-3.6-6
			c-0.9-2.2-1.6-4.5-1.9-6.8c-0.7-4.5-0.8-9.2,0.2-13.8c0.5-2.3,1.3-4.5,2.4-6.6c0.5-1.1,1.2-2.1,1.8-3c0.4-0.5,0.7-0.9,1.1-1.4
			c0.2-0.2,0.4-0.4,0.6-0.7c0.1-0.1,0.2-0.2,0.4-0.4l0.1-0.1l0.1-0.1l0.1-0.1l0,0l0,0c0.1-0.1,0.4-0.2,0.5-0.3l64.4-22.3
			c0.6-0.2,1.2,0.1,1.4,0.6C248.1,718.8,247.8,719.5,247.2,719.7z"/>
	</g>
	<g>
		<path d="M233.5,782.1c-0.8,0.1-1.3-0.1-1.8-0.4c-0.5-0.4-0.9-0.6-1.4-1c-0.9-0.7-1.8-1.4-2.7-2.2c-1.7-1.5-3.3-3.2-4.7-5
			c-2.9-3.5-5.3-7.6-6.8-12c-0.7-2.2-1.2-4.5-1.4-6.8l-0.1-1.7c-0.1-0.6,0-1.2-0.1-1.7v-0.9l0.1-0.9c0.1-0.6,0.1-1.2,0.1-1.7
			c0.1-1.2,0.2-2.3,0.5-3.4c0.1-0.6,0.2-1.2,0.4-1.7l0.4-1.7l0.2-0.8c0.1-0.3,0.2-0.5,0.3-0.8l0.6-1.6c0.1-0.3,0.2-0.5,0.4-0.8
			l0.4-0.8c0.2-0.5,0.5-1,0.8-1.5c0.1-0.3,0.4-0.4,0.7-0.2c0.2,0.1,0.4,0.4,0.3,0.6l0,0c-0.1,0.5-0.3,1.1-0.4,1.6l-0.2,0.8
			c-0.1,0.3-0.1,0.5-0.2,0.8l-0.4,1.6l-0.2,0.8l-0.1,0.8l-0.4,1.6c-0.1,0.5-0.1,1.1-0.3,1.6c-0.2,1.1-0.2,2.2-0.4,3.2
			c0,0.5,0,1.1-0.1,1.6v0.8l0.1,0.8c0,0.5,0.1,1.1,0.1,1.6l0.2,1.6c0.4,2.1,0.9,4.2,1.6,6.2c1.5,4,3.7,7.6,6.5,10.9
			c1.4,1.7,2.9,3.2,4.5,4.6c0.8,0.7,1.7,1.4,2.4,2c0.4,0.4,0.9,0.6,1.3,0.9c0.4,0.3,0.9,0.6,1,1.4l0.1,0.2
			C234.6,781.3,234.2,782,233.5,782.1L233.5,782.1z"/>
	</g>
	<g>
		<path d="M196.5,742.5c-0.2,1-0.4,2-0.6,2.9c-0.2,1-0.4,1.9-0.5,2.9c-0.3,1.9-0.6,4-0.6,5.9c-0.1,1.9,0.1,4,0.4,5.9
			c0.3,1.9,0.8,3.8,1.4,5.7c0.7,1.8,1.6,3.5,2.7,5.2c1.1,1.6,2.3,3.1,3.7,4.5c1.4,1.4,2.9,2.5,4.6,3.7l1.2,0.8
			c0.4,0.3,0.9,0.5,1.3,0.7l0.6,0.4l0.6,0.4l1.4,0.6h0.1c0.8,0.4,1.2,1.4,0.7,2.2c-0.4,0.8-1.3,1.1-2.1,0.7c-1.9-0.9-3.9-1.8-5.7-3
			c-1.8-1.2-3.5-2.5-5.1-4c-3.1-3-5.6-6.8-7-10.9c-0.7-2.1-1.2-4.2-1.5-6.3c-0.3-2.2-0.3-4.3-0.2-6.5c0.1-1.1,0.2-2.2,0.4-3.2
			c0.2-1.1,0.4-2.1,0.6-3.2c0.6-2.1,1.4-4,2.5-5.9c0.2-0.3,0.6-0.4,0.9-0.2C196.4,741.9,196.6,742.2,196.5,742.5L196.5,742.5z"/>
	</g>
	<g>
		<path class="st2" d="M247.7,720.5L247.7,720.5C247.6,720.5,247.6,720.5,247.7,720.5h-0.1h-0.1c-0.1,0-0.1,0.1-0.1,0.1
			s-0.1,0.1-0.1,0.1l-0.1,0.1c-0.1,0.1-0.2,0.1-0.3,0.2c-0.4,0.4-0.8,0.8-1.2,1.3c-0.7,1-1.4,2.2-1.9,3.3c-1.1,2.4-1.8,5-2.3,7.6
			c-0.5,2.6-0.7,5.3-0.6,7.9c0,1.3,0.1,2.7,0.3,4c0.1,1.3,0.4,2.6,0.7,4c1.2,5.2,3.1,10.4,5.7,15c1.3,2.3,2.8,4.5,4.5,6.5
			c0.9,0.9,1.8,1.9,2.7,2.5c0.5,0.4,0.9,0.6,1.4,0.9c0.5,0.2,0.9,0.4,1.3,0.4c0.1,0,0.1,0,0.2,0s0.1,0,0.1,0h0.1
			c0.1,0,0.1-0.1,0.2-0.1c0.1,0,0.1-0.1,0.2-0.1c0.3-0.2,0.6-0.6,1-1c0.6-0.9,1.2-2,1.7-3.2c0.9-2.4,1.5-5,1.9-7.6
			c0.2-1.3,0.4-2.7,0.4-4c0.1-1.4,0.1-2.7,0.1-4c0-2.7-0.2-5.4-0.7-8c-0.9-5.2-2.7-10.4-5.2-15.2c-1.3-2.4-2.7-4.6-4.4-6.6
			c-0.9-1-1.7-1.9-2.7-2.7c-0.5-0.4-1-0.7-1.4-1C248.4,720.6,247.9,720.5,247.7,720.5z M247.5,717.3c0.6,0,1.2,0.1,1.6,0.1
			c0.2,0.1,0.4,0.1,0.6,0.2c0.2,0.1,0.4,0.1,0.6,0.3c0.8,0.4,1.4,0.9,2,1.3c1.2,0.9,2.2,2,3.2,3.2c1.9,2.2,3.5,4.6,4.8,7.1
			c2.7,5,4.8,10.4,5.9,16.1c0.5,2.8,0.8,5.7,0.9,8.6c0.1,2.9-0.1,5.8-0.4,8.6c-0.2,1.4-0.4,2.9-0.8,4.2c-0.4,1.4-0.7,2.8-1.3,4.2
			c-0.6,1.4-1.2,2.8-2.2,4.2c-0.5,0.6-1.2,1.4-2,1.9c-0.2,0.1-0.4,0.3-0.7,0.4c-0.3,0.1-0.5,0.2-0.8,0.3c-0.1,0-0.3,0.1-0.4,0.1
			s-0.3,0.1-0.4,0.1c-0.3,0-0.6,0.1-0.8,0c-1.1-0.1-1.9-0.4-2.7-0.7c-0.8-0.4-1.5-0.8-2.1-1.3c-1.3-0.9-2.4-2-3.3-3.1
			c-1.9-2.2-3.5-4.7-5-7.2c-2.7-5-4.7-10.5-5.8-16.1c-0.3-1.4-0.5-2.9-0.6-4.2c-0.1-1.4-0.2-2.9-0.2-4.3c0-2.9,0.3-5.8,0.9-8.6
			c0.6-2.8,1.4-5.6,2.6-8.3c0.6-1.4,1.3-2.7,2.2-3.9c0.4-0.6,1-1.2,1.6-1.8c0.1-0.1,0.3-0.3,0.5-0.4l0.3-0.2
			c0.1-0.1,0.2-0.1,0.3-0.2c0.1-0.1,0.2-0.1,0.4-0.1c0.1-0.1,0.3-0.1,0.4-0.1l0.2-0.1c0.1,0,0.1,0,0.2-0.1
			C247.1,717.4,247.3,717.4,247.5,717.3z"/>
	</g>
	<g>
		<path d="M96.6,677.1l64.9-13.8l-0.9,0.5l0,0l0.1-0.2l0.2-0.3c0.1-0.1,0.3-0.4,0.4-0.6c0.3-0.4,0.5-0.7,0.8-1.2
			c0.5-0.8,0.9-1.6,1.4-2.4c0.8-1.7,1.5-3.4,1.9-5.2c0.5-1.8,0.8-3.7,0.9-5.5c0.1-1.9,0.1-3.7-0.1-5.6c-0.4-3.7-1.5-7.3-3.5-10.4
			c-0.9-1.6-2.1-3-3.5-4.4c-0.6-0.6-1.4-1.3-2.1-1.9c-0.4-0.3-0.7-0.6-1.1-0.9c-0.2-0.1-0.4-0.3-0.6-0.4l-0.3-0.2l-0.2-0.1l0,0
			l0.6,0.1c-5.1-0.1-10.1-0.3-15.2-0.4l-7.6-0.3l-7.6-0.3l-7.6-0.3l-7.6-0.4c-2.5-0.1-5.1-0.3-7.6-0.4c-1.3-0.1-2.5-0.1-3.8-0.2
			c-1.3-0.1-2.5-0.1-3.8-0.3c-0.5-0.1-0.9-0.5-0.9-1c0.1-0.5,0.4-0.9,0.9-0.9c1.3,0,2.5,0,3.8,0c1.3,0,2.5,0,3.8,0
			c2.5,0,5.1,0.1,7.6,0.1l7.6,0.1l7.6,0.2l7.6,0.2l7.6,0.3c5.1,0.1,10.1,0.4,15.2,0.6l0,0c0.2,0,0.4,0.1,0.6,0.1l0,0
			c0.1,0.1,0.3,0.1,0.4,0.2l0.4,0.2c0.2,0.1,0.5,0.3,0.7,0.4c0.4,0.3,0.9,0.6,1.3,0.9c0.9,0.6,1.7,1.3,2.4,2c1.6,1.4,2.9,3,4.2,4.8
			c0.3,0.4,0.6,0.9,0.9,1.4c0.3,0.5,0.5,0.9,0.8,1.4c0.5,0.9,0.9,1.9,1.3,2.9c0.7,2,1.2,4.1,1.4,6.3c0.2,2.1,0.3,4.2,0.1,6.3
			c-0.1,2.1-0.5,4.2-1.1,6.3c-0.6,2-1.4,4-2.4,5.9c-0.5,0.9-1.1,1.9-1.7,2.7c-0.3,0.4-0.6,0.9-0.9,1.3c-0.1,0.2-0.4,0.4-0.5,0.6
			l-0.3,0.3l-0.1,0.1l-0.1,0.2l0,0c-0.2,0.3-0.6,0.4-0.9,0.5l0,0L97.6,681c-1.1,0.2-2.1-0.4-2.3-1.5
			C94.9,678.4,95.5,677.3,96.6,677.1L96.6,677.1z"/>
	</g>
	<g>
		<path d="M123.8,672.5c-0.2-0.7,0-1.2,0.3-1.6c0.2-0.4,0.5-0.9,0.7-1.3c0.4-0.9,0.9-1.8,1.2-2.7c0.7-1.9,1.3-3.7,1.7-5.7
			c0.9-3.9,1.2-7.9,1.1-11.9c-0.1-4-0.9-8-2.3-11.8c-0.7-1.9-1.6-3.7-2.6-5.4s-2.2-3.4-3.5-5l0,0c-0.2-0.2-0.1-0.6,0.1-0.8
			c0.2-0.1,0.5-0.1,0.6,0c1.7,1.3,3.2,2.9,4.4,4.7s2.2,3.7,3.1,5.7c1.7,4,2.6,8.2,2.9,12.4c0.1,2.2,0.2,4.3,0.1,6.4
			c-0.1,2.2-0.4,4.2-0.9,6.4c-0.4,2.1-1.1,4.2-1.9,6.2c-0.4,1-0.9,2-1.3,2.9c-0.2,0.5-0.5,0.9-0.8,1.4c-0.1,0.2-0.3,0.5-0.5,0.6
			c-0.2,0.2-0.5,0.4-0.9,0.4C124.7,673.7,124,673.2,123.8,672.5L123.8,672.5z"/>
	</g>
	<g>
		<path d="M139.2,623c0.9,0.5,1.9,1.1,2.7,1.7c0.2,0.1,0.4,0.3,0.6,0.5l0.6,0.5c0.4,0.4,0.8,0.7,1.2,1.2c1.6,1.5,2.9,3.3,4,5.2
			c2.2,3.7,3.7,8,4.3,12.4c0.6,4.4,0.4,8.8-0.6,13.2c-1,4.3-2.9,8.4-5.3,12.1c-0.5,0.7-1.5,0.9-2.2,0.4c-0.7-0.5-0.9-1.4-0.4-2.2
			l0,0c1.1-1.7,2.1-3.5,2.9-5.3c0.2-0.4,0.4-0.9,0.6-1.4l0.5-1.4l0.4-1.4c0.1-0.5,0.3-1,0.4-1.4c0.9-3.9,1.2-8,0.8-12
			c-0.4-4-1.6-8-3.5-11.6c-1.9-3.6-4.4-6.9-7.8-9.3l0,0c-0.2-0.1-0.3-0.5-0.1-0.7C138.7,623,139,622.9,139.2,623z"/>
	</g>
	<g>
		<path d="M96.5,676.6C96.4,676.6,96.4,676.7,96.5,676.6c0,0,0.1-0.1,0.3-0.2c0.4-0.2,0.7-0.6,1-1.1c0.7-0.9,1.3-1.9,1.9-3
			c1.1-2.2,1.9-4.5,2.7-7c0.6-2.4,1.2-5,1.4-7.5c0.1-1.3,0.2-2.5,0.2-3.8s0-2.5-0.1-3.8c-0.1-2.6-0.4-5.1-0.9-7.7
			c-0.4-2.5-1-5-1.7-7.6c-0.7-2.4-1.6-4.9-2.7-7.1c-0.6-1.1-1.2-2.2-1.9-3.1c-0.4-0.4-0.8-0.9-1.2-1.2c-0.4-0.3-0.8-0.5-1.1-0.6
			c-0.1,0-0.1,0-0.2,0h-0.1H94c-0.1,0-0.3,0.1-0.4,0.2c-0.4,0.2-0.7,0.6-1,1.1c-0.6,0.9-1.2,2-1.7,3.2c-0.9,2.3-1.6,4.8-2.1,7.3
			c-0.5,2.5-0.9,5.1-1,7.7c-0.2,2.6-0.3,5.2-0.1,7.7c0.2,5.1,1.2,10.2,2.7,15c0.8,2.4,1.7,4.8,2.9,7c0.6,1.1,1.2,2.1,1.9,2.9
			c0.4,0.4,0.7,0.8,1.1,1.1c0.1,0.1,0.3,0.2,0.4,0.3C96.5,676.6,96.6,676.6,96.5,676.6z M96.3,681c-0.7-0.1-1.3-0.2-1.8-0.5
			c-0.5-0.2-0.9-0.5-1.2-0.8c-0.7-0.6-1.2-1.2-1.7-1.8c-0.9-1.2-1.7-2.4-2.3-3.7c-1.3-2.5-2.2-5.1-2.9-7.8c-0.7-2.7-1.3-5.3-1.7-8
			c-0.4-2.7-0.6-5.4-0.6-8.1c0-5.5,0.5-10.8,1.7-16.1c0.6-2.7,1.3-5.2,2.4-7.8c0.6-1.3,1.2-2.6,2.1-3.8c0.4-0.6,1-1.2,1.8-1.7
			c0.4-0.3,0.9-0.5,1.4-0.6c0.1,0,0.3-0.1,0.4-0.1s0.3,0,0.4,0c0.3,0,0.5,0,0.8,0.1c1,0.1,1.8,0.6,2.4,1.2s1.2,1.1,1.7,1.6
			c0.9,1.2,1.7,2.4,2.3,3.6c1.3,2.4,2.2,5,3.1,7.6c1.6,5.2,2.6,10.5,3.1,15.9c0.1,1.4,0.2,2.7,0.2,4.1c0,1.4,0,2.7-0.1,4.1
			c-0.2,2.7-0.6,5.5-1.2,8.1c-0.6,2.7-1.5,5.3-2.7,7.8c-0.6,1.3-1.3,2.5-2.2,3.7c-0.5,0.6-1,1.2-1.7,1.8c-0.4,0.3-0.8,0.6-1.3,0.8
			C97.8,680.8,97.1,681,96.3,681z"/>
	</g>
	<path class="st3" d="M168.2,642.4c28.7-0.4,61.6,7.4,60.6,18.7c-1.7,20-71.2,11.5-76.9,28.6c-1.4,4.3,2.4,8.6,6.2,10.9
		c4,2.4,8.3,4,12.9,4.8c1.9,0.4,4,0.5,5.9-0.3s3.3-2.7,2.9-4.7c-0.4-2.2-2.7-3.3-4.8-4c-4.5-1.3-9.6-1.5-13.7,0.9s-6.7,7.7-4.7,12
		c1,2.3,3.1,4,5.2,5.3c7,4.2,15.8,5,23.4,2.1c1.5-0.6,3.2-1.6,3.2-3.2c0.1-0.7-0.3-1.4-0.6-2.1c-2.1-3.6-5.9-5.8-9.6-7.8
		c-5-2.7-10.2-5.2-15.7-6.6c-4.1-1.1-8.6-1.6-12.4,0.1c-3.9,1.7-6.9,5.9-5.9,10c0.6,2.5,2.5,4.5,4.5,6.2c5.5,4.5,12.9,7.8,19.6,5.4
		c1.3-0.4,2.5-1.2,3.4-2.2c2.5-3,0.9-7.6,1.7-11.4c0.6-3.7,3.5-6.7,6.9-8.3c3.4-1.6,7.3-1.8,10.9-1.3c4.9,0.6,10.2,2.9,11.7,7.7
		c1.1,3.3-0.1,7-2.2,9.8c-2.2,2.7-5.2,4.6-8.3,6.1c-9.9,4.9-28.2,7-43.1,8.4c-22.9,2.2-41.9,10.6-40.4,20.6
		c2.2,15,41.4,22,67.9,18.4"/>
	<g>
		<path d="M78.8,652.9c-1.4,0.5-2.9,0.7-4.3,0.9c-1.4,0.1-2.9,0.2-4.3,0.2c-1.4,0-2.9,0-4.3-0.1s-2.9-0.1-4.4-0.4
			c-0.4-0.1-0.6-0.4-0.6-0.7c0.1-0.3,0.2-0.5,0.5-0.5c1.4-0.4,2.9-0.6,4.3-0.7c1.4-0.1,2.9-0.3,4.3-0.4s2.9-0.1,4.3-0.1
			c1.4,0.1,2.9,0.1,4.4,0.5c0.4,0.1,0.6,0.4,0.5,0.8C79.1,652.7,79,652.8,78.8,652.9z"/>
	</g>
	<g>
		<path d="M78.5,636.5c-1.2-0.1-2.2-0.4-3.2-0.7c-1-0.4-2-0.7-3-1.2c-1-0.4-1.9-0.9-2.9-1.5c-0.9-0.6-1.8-1.2-2.7-1.9
			c-0.4-0.3-0.4-0.9-0.1-1.2c0.2-0.2,0.4-0.3,0.7-0.3c1.2,0.1,2.2,0.5,3.2,0.9c1,0.4,2,0.8,3,1.3c1,0.5,1.9,1,2.9,1.6
			c0.9,0.6,1.8,1.2,2.7,2.1c0.3,0.3,0.3,0.6,0,0.9C78.8,636.5,78.7,636.6,78.5,636.5z"/>
	</g>
	<g>
		<path d="M79.9,668.6c-0.7,0.7-1.6,1.3-2.4,1.9c-0.8,0.6-1.7,1.2-2.5,1.7c-0.9,0.5-1.7,1-2.7,1.4c-0.9,0.4-1.9,0.9-2.8,1.2
			c-0.4,0.1-0.7-0.1-0.8-0.4c-0.1-0.2,0-0.5,0.1-0.6c0.7-0.7,1.5-1.4,2.4-2c0.8-0.6,1.7-1.2,2.5-1.7c0.9-0.5,1.7-1,2.7-1.5
			c0.9-0.4,1.8-0.9,2.8-1.2c0.4-0.1,0.9,0.1,1,0.5C80.2,668.1,80.1,668.4,79.9,668.6z"/>
	</g>
	<g>
		<path d="M271.1,742.7c1.6-0.8,3.2-1.4,4.9-1.8c1.7-0.4,3.3-0.8,5-1.1c1.7-0.3,3.4-0.6,5.1-0.7c0.9-0.1,1.7-0.2,2.6-0.2
			c0.9-0.1,1.7-0.1,2.6-0.1c0.4,0,0.6,0.3,0.6,0.6c0,0.3-0.1,0.5-0.4,0.6c-0.8,0.4-1.7,0.6-2.4,0.9c-0.8,0.3-1.7,0.5-2.4,0.8
			c-1.7,0.5-3.3,0.9-5,1.3c-1.7,0.4-3.4,0.7-5,0.9c-1.7,0.2-3.5,0.4-5.2,0.2c-0.4,0-0.6-0.4-0.6-0.7
			C270.8,743,271,742.8,271.1,742.7z"/>
	</g>
	<g>
		<path d="M265.7,726.1c0.5-1.2,1.1-2.1,1.7-3.1c0.6-0.9,1.4-1.9,2.2-2.7c0.8-0.9,1.5-1.7,2.4-2.6c0.8-0.9,1.7-1.7,2.6-2.4
			c0.3-0.2,0.6-0.1,0.9,0.1c0.1,0.2,0.2,0.5,0.1,0.7c-0.5,1.1-1.2,2.1-1.8,3.1c-0.6,1-1.3,1.9-2,2.9s-1.4,1.9-2.2,2.7
			c-0.8,0.9-1.7,1.7-2.7,2.4c-0.4,0.3-0.9,0.1-1.2-0.2C265.6,726.6,265.6,726.3,265.7,726.1z"/>
	</g>
	<g>
		<path d="M272.1,760.9c1.2,0,2.3,0.1,3.5,0.3c1.2,0.1,2.2,0.4,3.3,0.7s2.2,0.6,3.2,1c1.1,0.4,2.2,0.8,3.2,1.4
			c0.4,0.2,0.6,0.7,0.4,1.1c-0.1,0.3-0.4,0.4-0.7,0.4c-1.2-0.1-2.3-0.2-3.5-0.4c-1.2-0.2-2.2-0.4-3.3-0.7c-1.1-0.3-2.2-0.6-3.2-1
			c-1.1-0.4-2.2-0.9-3.2-1.5c-0.3-0.2-0.4-0.6-0.2-0.9C271.6,761,271.9,760.9,272.1,760.9z"/>
	</g>
</g>
</svg>
